<?xml version="1.0" encoding="UTF-8"?>
<svg xmlns="http://www.w3.org/2000/svg" xmlns:xlink="http://www.w3.org/1999/xlink" width="134px" height="134px" viewBox="0 0 134 134" version="1.2">
<defs>
<clipPath id="clip1">
  <path d="M 0 0 L 132.75 0 L 132.75 132.75 L 0 132.75 Z M 0 0 "/>
</clipPath>
</defs>
<g id="surface1">
<g clip-path="url(#clip1)" clip-rule="nonzero">
<path style=" stroke:none;fill-rule:nonzero;fill:rgb(99.609375%,99.609375%,99.609375%);fill-opacity:1;" d="M 99.457031 0 L 33.1875 0 C 14.960938 0 0 14.960938 0 33.292969 L 0 99.5625 C 0 117.789062 14.960938 132.75 33.1875 132.75 L 99.457031 132.75 C 117.789062 132.75 132.75 117.789062 132.75 99.457031 L 132.75 33.292969 C 132.75 14.960938 117.789062 0 99.457031 0 Z M 84.179688 66.375 L 71.644531 66.375 L 71.644531 107.464844 L 55.839844 107.464844 L 55.839844 66.375 L 47.410156 66.375 L 47.410156 49.519531 L 54.785156 49.519531 L 54.785156 42.355469 C 54.785156 35.609375 58.15625 24.96875 72.378906 24.96875 L 85.339844 24.96875 L 85.339844 38.980469 L 76.171875 38.980469 C 74.699219 38.980469 72.695312 39.929688 72.695312 43.195312 L 72.695312 49.519531 L 85.65625 49.519531 Z M 84.179688 66.375 "/>
</g>
</g>
</svg>
