<?xml version="1.0" encoding="UTF-8"?>
<svg xmlns="http://www.w3.org/2000/svg" xmlns:xlink="http://www.w3.org/1999/xlink" width="141px" height="141px" viewBox="0 0 141 141" version="1.2">
<g id="surface1">
<path style=" stroke:none;fill-rule:nonzero;fill:rgb(99.609375%,99.609375%,99.609375%);fill-opacity:1;" d="M 70.46875 12.710938 C 89.285156 12.710938 91.507812 12.773438 98.953125 13.113281 C 105.8125 13.421875 109.550781 14.566406 112.050781 15.554688 C 115.328125 16.820312 117.675781 18.367188 120.148438 20.839844 C 122.617188 23.308594 124.132812 25.65625 125.429688 28.933594 C 126.386719 31.402344 127.53125 35.140625 127.871094 42.03125 C 128.210938 49.476562 128.273438 51.699219 128.273438 70.515625 C 128.273438 89.328125 128.210938 91.554688 127.871094 99 C 127.5625 105.859375 126.417969 109.597656 125.429688 112.097656 C 124.164062 115.375 122.617188 117.722656 120.148438 120.191406 C 117.675781 122.664062 115.328125 124.179688 112.050781 125.476562 C 109.582031 126.433594 105.84375 127.578125 98.953125 127.917969 C 91.507812 128.257812 89.285156 128.316406 70.46875 128.316406 C 51.65625 128.316406 49.429688 128.257812 41.984375 127.917969 C 35.125 127.609375 31.386719 126.464844 28.886719 125.476562 C 25.609375 124.210938 23.261719 122.664062 20.792969 120.191406 C 18.320312 117.722656 16.804688 115.375 15.507812 112.097656 C 14.550781 109.628906 13.40625 105.890625 13.066406 99 C 12.726562 91.554688 12.667969 89.328125 12.667969 70.515625 C 12.667969 51.699219 12.726562 49.476562 13.066406 42.03125 C 13.378906 35.171875 14.519531 31.433594 15.507812 28.933594 C 16.777344 25.65625 18.320312 23.308594 20.792969 20.839844 C 23.261719 18.367188 25.609375 16.851562 28.886719 15.554688 C 31.355469 14.597656 35.09375 13.453125 41.984375 13.113281 C 49.429688 12.773438 51.65625 12.710938 70.46875 12.710938 M 70.46875 0.015625 C 51.316406 0.015625 48.9375 0.109375 41.398438 0.449219 C 33.890625 0.789062 28.761719 1.992188 24.28125 3.722656 C 19.648438 5.515625 15.726562 7.925781 11.800781 11.847656 C 7.910156 15.769531 5.5 19.695312 3.707031 24.328125 C 1.976562 28.808594 0.773438 33.9375 0.433594 41.445312 C 0.09375 48.953125 0 51.359375 0 70.484375 C 0 89.640625 0.09375 92.019531 0.433594 99.554688 C 0.773438 107.0625 1.976562 112.191406 3.707031 116.671875 C 5.5 121.304688 7.910156 125.230469 11.832031 129.152344 C 15.757812 133.074219 19.679688 135.484375 24.3125 137.277344 C 28.792969 139.007812 33.921875 140.210938 41.429688 140.550781 C 48.9375 140.890625 51.347656 140.984375 70.5 140.984375 C 89.652344 140.984375 92.03125 140.890625 99.570312 140.550781 C 107.078125 140.210938 112.207031 139.007812 116.6875 137.277344 C 121.320312 135.484375 125.242188 133.074219 129.167969 129.152344 C 133.089844 125.230469 135.5 121.304688 137.292969 116.671875 C 139.023438 112.191406 140.226562 107.0625 140.566406 99.554688 C 140.90625 92.046875 141 89.640625 141 70.484375 C 141 51.332031 140.90625 48.953125 140.566406 41.414062 C 140.226562 33.90625 139.023438 28.777344 137.292969 24.296875 C 135.5 19.664062 133.089844 15.742188 129.167969 11.816406 C 125.242188 7.894531 121.320312 5.484375 116.6875 3.691406 C 112.207031 1.960938 107.078125 0.757812 99.570312 0.417969 C 92.03125 0.109375 89.625 0.015625 70.46875 0.015625 "/>
<path style=" stroke:none;fill-rule:nonzero;fill:rgb(99.609375%,99.609375%,99.609375%);fill-opacity:1;" d="M 70.46875 34.308594 C 50.480469 34.308594 34.292969 50.496094 34.292969 70.484375 C 34.292969 90.472656 50.511719 106.691406 70.5 106.691406 C 90.488281 106.691406 106.707031 90.503906 106.707031 70.484375 C 106.675781 50.496094 90.457031 34.308594 70.46875 34.308594 M 70.46875 93.996094 C 57.492188 93.996094 46.988281 83.492188 46.988281 70.515625 C 46.988281 57.539062 57.492188 47.035156 70.46875 47.035156 C 83.445312 47.035156 93.949219 57.539062 93.949219 70.515625 C 93.980469 83.460938 83.445312 93.996094 70.46875 93.996094 "/>
<path style=" stroke:none;fill-rule:nonzero;fill:rgb(99.609375%,99.609375%,99.609375%);fill-opacity:1;" d="M 116.5625 32.886719 C 116.5625 37.550781 112.761719 41.351562 108.097656 41.351562 C 103.433594 41.351562 99.632812 37.550781 99.632812 32.886719 C 99.632812 28.222656 103.433594 24.421875 108.097656 24.421875 C 112.761719 24.421875 116.5625 28.191406 116.5625 32.886719 "/>
</g>
</svg>
