<?xml version="1.0" encoding="UTF-8"?>
<svg xmlns="http://www.w3.org/2000/svg" xmlns:xlink="http://www.w3.org/1999/xlink" width="142px" height="142px" viewBox="0 0 142 142" version="1.2">
<defs>
<clipPath id="clip1">
  <path d="M 0 0 L 141.75 0 L 141.75 141.75 L 0 141.75 Z M 0 0 "/>
</clipPath>
</defs>
<g id="surface1">
<g clip-path="url(#clip1)" clip-rule="nonzero">
<path style=" stroke:none;fill-rule:nonzero;fill:rgb(99.609375%,99.609375%,99.609375%);fill-opacity:1;" d="M 106.117188 0.0546875 L 35.523438 0.0546875 C 15.960938 0.0546875 0 16.019531 0 35.578125 L 0 106.285156 C 0 125.730469 15.960938 141.695312 35.523438 141.695312 L 106.226562 141.695312 C 125.789062 141.695312 141.75 125.730469 141.75 106.171875 L 141.75 35.578125 C 141.636719 16.019531 125.675781 0.0546875 106.117188 0.0546875 Z M 47.210938 114.714844 L 26.980469 114.714844 L 26.980469 56.261719 L 47.210938 56.261719 Z M 36.984375 47.269531 C 31.25 47.269531 26.640625 42.660156 26.640625 36.925781 C 26.640625 31.195312 31.25 26.585938 36.984375 26.585938 C 42.714844 26.585938 47.324219 31.195312 47.324219 36.925781 C 47.210938 42.660156 42.605469 47.269531 36.984375 47.269531 Z M 114.660156 114.714844 L 97.796875 114.714844 L 97.796875 86.386719 C 97.796875 79.53125 96.898438 70.761719 87.566406 70.761719 C 78.011719 70.761719 76.4375 78.183594 76.4375 85.9375 L 76.4375 114.714844 L 59.578125 114.714844 L 59.578125 56.261719 L 75.316406 56.261719 L 75.316406 64.128906 L 75.765625 64.128906 C 78.238281 59.632812 83.972656 56.148438 92.964844 56.148438 C 111.511719 56.148438 114.769531 66.828125 114.769531 82.679688 L 114.769531 114.714844 Z M 114.660156 114.714844 "/>
</g>
</g>
</svg>
