<?xml version="1.0" encoding="UTF-8"?>
<svg xmlns="http://www.w3.org/2000/svg" xmlns:xlink="http://www.w3.org/1999/xlink" width="40px" height="150px" viewBox="0 0 40 150" version="1.2">
<defs>
<clipPath id="clip1">
  <path d="M 0 0 L 37.5 0 L 37.5 146.25 L 0 146.25 Z M 0 0 "/>
</clipPath>
</defs>
<g id="surface1">
<g clip-path="url(#clip1)" clip-rule="nonzero">
<path style=" stroke:none;fill-rule:nonzero;fill:rgb(16.468811%,18.03894%,18.818665%);fill-opacity:1;" d="M 11.15625 129.582031 C 12.332031 127.117188 13.609375 124.695312 14.660156 122.179688 C 24.4375 98.730469 29.550781 74.375 28.992188 48.886719 C 28.773438 39.058594 27.636719 29.40625 24.648438 20.007812 C 22.652344 13.722656 19.863281 7.910156 14.949219 3.324219 C 14.722656 3.113281 14.574219 2.816406 14.414062 2.578125 C 16.265625 -0.183594 19.480469 -0.808594 21.949219 1.101562 C 25.214844 3.632812 27.488281 6.96875 29.316406 10.59375 C 33.628906 19.148438 35.636719 28.335938 36.597656 37.792969 C 35.859375 41.570312 37.097656 45.25 37.148438 48.992188 C 37.203125 52.765625 37.40625 56.546875 37.398438 60.324219 C 37.382812 72.574219 35.554688 84.59375 32.773438 96.496094 C 30.289062 107.128906 26.785156 117.394531 22.1875 127.296875 C 22.109375 127.464844 22.089844 127.65625 21.960938 128.113281 C 23.121094 127.6875 23.839844 126.960938 24.5625 126.328125 C 25.847656 125.199219 27.035156 124.640625 28.710938 125.769531 C 29.523438 126.316406 30.699219 126.324219 31.171875 127.609375 C 30.894531 127.957031 30.625 128.394531 30.253906 128.722656 C 24.089844 134.242188 17.925781 139.757812 11.738281 145.25 C 10.277344 146.542969 9.804688 146.53125 8.101562 145.535156 C 7.777344 145.34375 7.4375 145.167969 7.078125 145.066406 C 4.824219 144.421875 3.824219 143.007812 3.683594 140.703125 C 3.335938 135.046875 2.921875 129.398438 2.464844 123.757812 C 2.347656 122.335938 2.042969 120.910156 1.636719 119.542969 C 1.273438 118.335938 0.644531 117.207031 0.09375 115.949219 C 1.78125 115.332031 3.21875 116.1875 4.671875 117.039062 C 7.191406 118.507812 8.605469 120.757812 9.285156 123.527344 C 9.769531 125.527344 10.25 127.535156 10.730469 129.542969 C 10.871094 129.550781 11.011719 129.566406 11.15625 129.582031 Z M 11.15625 129.582031 "/>
</g>
</g>
</svg>
