<svg xmlns="http://www.w3.org/2000/svg" xmlns:xlink="http://www.w3.org/1999/xlink" width="300" zoomAndPan="magnify" viewBox="0 0 224.87999 299.999988" height="400" preserveAspectRatio="xMidYMid meet" version="1.0"><defs><clipPath id="527090ed6c"><path d="M 7 3 L 119 3 L 119 125 L 7 125 Z M 7 3 " clip-rule="nonzero"/></clipPath><clipPath id="7d2f1a337a"><path d="M 127.816406 33.199219 L 95.558594 125.949219 L -0.0195312 92.710938 L 32.234375 -0.0390625 Z M 127.816406 33.199219 " clip-rule="nonzero"/></clipPath><clipPath id="f70adf0a39"><path d="M 127.816406 33.199219 L 95.558594 125.949219 L -0.0195312 92.710938 L 32.234375 -0.0390625 Z M 127.816406 33.199219 " clip-rule="nonzero"/></clipPath><clipPath id="be07a1ee24"><path d="M 127.816406 33.203125 L 95.527344 126.046875 L -0.113281 92.785156 L 32.175781 -0.0585938 Z M 127.816406 33.203125 " clip-rule="nonzero"/></clipPath><clipPath id="1333845ff4"><path d="M 127.816406 33.203125 L 95.5625 125.945312 L -0.0234375 92.703125 L 32.230469 -0.0390625 Z M 127.816406 33.203125 " clip-rule="nonzero"/></clipPath><clipPath id="ef4bc75a1d"><path d="M 81 28 L 119 28 L 119 125 L 81 125 Z M 81 28 " clip-rule="nonzero"/></clipPath><clipPath id="f576e2b18e"><path d="M 127.816406 33.199219 L 95.558594 125.949219 L -0.0195312 92.710938 L 32.234375 -0.0390625 Z M 127.816406 33.199219 " clip-rule="nonzero"/></clipPath><clipPath id="0ab21b8d17"><path d="M 127.816406 33.199219 L 95.558594 125.949219 L -0.0195312 92.710938 L 32.234375 -0.0390625 Z M 127.816406 33.199219 " clip-rule="nonzero"/></clipPath><clipPath id="7dc21cd9db"><path d="M 127.816406 33.203125 L 95.527344 126.046875 L 75.101562 118.945312 L 107.390625 26.097656 Z M 127.816406 33.203125 " clip-rule="nonzero"/></clipPath><clipPath id="eabadc6296"><path d="M 127.816406 33.203125 L 95.5625 125.945312 L 75.136719 118.84375 L 107.390625 26.097656 Z M 127.816406 33.203125 " clip-rule="nonzero"/></clipPath><clipPath id="1259755ff8"><path d="M 7 3 L 115 3 L 115 101 L 7 101 Z M 7 3 " clip-rule="nonzero"/></clipPath><clipPath id="2724dc07a4"><path d="M 127.816406 33.199219 L 95.558594 125.949219 L -0.0195312 92.710938 L 32.234375 -0.0390625 Z M 127.816406 33.199219 " clip-rule="nonzero"/></clipPath><clipPath id="28d1bd7a62"><path d="M 127.816406 33.199219 L 95.558594 125.949219 L -0.0195312 92.710938 L 32.234375 -0.0390625 Z M 127.816406 33.199219 " clip-rule="nonzero"/></clipPath><clipPath id="d1afd69ca9"><path d="M 114.460938 28.558594 L 88.382812 103.539062 L 6.097656 74.921875 L 32.175781 -0.0585938 Z M 114.460938 28.558594 " clip-rule="nonzero"/></clipPath><clipPath id="cc9fa4ea9a"><path d="M 114.460938 28.558594 L 88.382812 103.539062 L 6.152344 74.941406 L 32.230469 -0.0390625 Z M 114.460938 28.558594 " clip-rule="nonzero"/></clipPath><clipPath id="76de692f82"><path d="M 20 132 L 98 132 L 98 218 L 20 218 Z M 20 132 " clip-rule="nonzero"/></clipPath><clipPath id="a526897ea0"><path d="M 15.363281 166.136719 L 70.953125 129.257812 L 109.078125 186.722656 L 53.484375 223.605469 Z M 15.363281 166.136719 " clip-rule="nonzero"/></clipPath><clipPath id="05659800b8"><path d="M 15.363281 166.136719 L 70.953125 129.257812 L 109.078125 186.722656 L 53.484375 223.605469 Z M 15.363281 166.136719 " clip-rule="nonzero"/></clipPath><clipPath id="2a90dd72cf"><path d="M 15.367188 166.132812 L 71.007812 129.222656 L 109.15625 186.722656 L 53.515625 223.636719 Z M 15.367188 166.132812 " clip-rule="nonzero"/></clipPath><clipPath id="ee3331a850"><path d="M 15.367188 166.132812 L 70.945312 129.261719 L 109.070312 186.730469 L 53.492188 223.601562 Z M 15.367188 166.132812 " clip-rule="nonzero"/></clipPath><clipPath id="5f36b52db9"><path d="M 20 132 L 74 132 L 74 175 L 20 175 Z M 20 132 " clip-rule="nonzero"/></clipPath><clipPath id="5b0e8109e6"><path d="M 15.363281 166.136719 L 70.953125 129.257812 L 109.078125 186.722656 L 53.484375 223.605469 Z M 15.363281 166.136719 " clip-rule="nonzero"/></clipPath><clipPath id="e72c483ae9"><path d="M 15.363281 166.136719 L 70.953125 129.257812 L 109.078125 186.722656 L 53.484375 223.605469 Z M 15.363281 166.136719 " clip-rule="nonzero"/></clipPath><clipPath id="3a45b55029"><path d="M 15.367188 166.132812 L 71.007812 129.222656 L 79.152344 141.5 L 23.515625 178.414062 Z M 15.367188 166.132812 " clip-rule="nonzero"/></clipPath><clipPath id="5a6b6e535f"><path d="M 15.367188 166.132812 L 70.945312 129.261719 L 79.09375 141.542969 L 23.515625 178.414062 Z M 15.367188 166.132812 " clip-rule="nonzero"/></clipPath><clipPath id="b1cb5fe391"><path d="M 20 148 L 97 148 L 97 218 L 20 218 Z M 20 148 " clip-rule="nonzero"/></clipPath><clipPath id="bf8ebeb811"><path d="M 15.363281 166.136719 L 70.953125 129.257812 L 109.078125 186.722656 L 53.484375 223.605469 Z M 15.363281 166.136719 " clip-rule="nonzero"/></clipPath><clipPath id="cd7a6729e3"><path d="M 15.363281 166.136719 L 70.953125 129.257812 L 109.078125 186.722656 L 53.484375 223.605469 Z M 15.363281 166.136719 " clip-rule="nonzero"/></clipPath><clipPath id="a913642cb7"><path d="M 20.695312 174.164062 L 65.628906 144.351562 L 98.449219 193.824219 L 53.515625 223.636719 Z M 20.695312 174.164062 " clip-rule="nonzero"/></clipPath><clipPath id="4b823c2eaf"><path d="M 20.695312 174.164062 L 65.628906 144.351562 L 98.429688 193.792969 L 53.492188 223.601562 Z M 20.695312 174.164062 " clip-rule="nonzero"/></clipPath><clipPath id="6da4597005"><path d="M 3 218 L 63 218 L 63 271 L 3 271 Z M 3 218 " clip-rule="nonzero"/></clipPath><clipPath id="0e2e3e0b7a"><path d="M 36.074219 214.882812 L 64.191406 249.988281 L 27.914062 279.039062 L -0.199219 243.933594 Z M 36.074219 214.882812 " clip-rule="nonzero"/></clipPath><clipPath id="767d724fc9"><path d="M 36.074219 214.882812 L 64.191406 249.988281 L 27.914062 279.039062 L -0.199219 243.933594 Z M 36.074219 214.882812 " clip-rule="nonzero"/></clipPath><clipPath id="be22a83a1a"><path d="M 36.074219 214.882812 L 64.21875 250.023438 L 27.921875 279.09375 L -0.222656 243.953125 Z M 36.074219 214.882812 " clip-rule="nonzero"/></clipPath><clipPath id="bef7e630b2"><path d="M 36.074219 214.882812 L 64.1875 249.984375 L 27.910156 279.039062 L -0.203125 243.9375 Z M 36.074219 214.882812 " clip-rule="nonzero"/></clipPath><clipPath id="e2350839d3"><path d="M 30 218 L 63 218 L 63 252 L 30 252 Z M 30 218 " clip-rule="nonzero"/></clipPath><clipPath id="42406ac98f"><path d="M 36.074219 214.882812 L 64.191406 249.988281 L 27.914062 279.039062 L -0.199219 243.933594 Z M 36.074219 214.882812 " clip-rule="nonzero"/></clipPath><clipPath id="25ef06d6cb"><path d="M 36.074219 214.882812 L 64.191406 249.988281 L 27.914062 279.039062 L -0.199219 243.933594 Z M 36.074219 214.882812 " clip-rule="nonzero"/></clipPath><clipPath id="3e2e43367b"><path d="M 36.074219 214.882812 L 64.21875 250.023438 L 56.46875 256.234375 L 28.324219 221.089844 Z M 36.074219 214.882812 " clip-rule="nonzero"/></clipPath><clipPath id="ddd37936b4"><path d="M 36.074219 214.882812 L 64.1875 249.984375 L 56.4375 256.195312 L 28.324219 221.089844 Z M 36.074219 214.882812 " clip-rule="nonzero"/></clipPath><clipPath id="4614cbf28f"><path d="M 3 218 L 52 218 L 52 271 L 3 271 Z M 3 218 " clip-rule="nonzero"/></clipPath><clipPath id="c0e782a885"><path d="M 36.074219 214.882812 L 64.191406 249.988281 L 27.914062 279.039062 L -0.199219 243.933594 Z M 36.074219 214.882812 " clip-rule="nonzero"/></clipPath><clipPath id="bce02418c5"><path d="M 36.074219 214.882812 L 64.191406 249.988281 L 27.914062 279.039062 L -0.199219 243.933594 Z M 36.074219 214.882812 " clip-rule="nonzero"/></clipPath><clipPath id="5230eb565a"><path d="M 31.007812 218.941406 L 53.734375 247.324219 L 22.507812 272.332031 L -0.222656 243.953125 Z M 31.007812 218.941406 " clip-rule="nonzero"/></clipPath><clipPath id="b0cfe3cb6c"><path d="M 31.007812 218.941406 L 53.734375 247.324219 L 22.527344 272.316406 L -0.203125 243.9375 Z M 31.007812 218.941406 " clip-rule="nonzero"/></clipPath><clipPath id="bb865a55f5"><path d="M 46 271 L 76 271 L 76 299.917969 L 46 299.917969 Z M 46 271 " clip-rule="nonzero"/></clipPath><clipPath id="45dc22945d"><path d="M 76.050781 272.242188 L 74.898438 299.953125 L 46.4375 298.769531 L 47.589844 271.058594 Z M 76.050781 272.242188 " clip-rule="nonzero"/></clipPath><clipPath id="1225ee8b3f"><path d="M 76.050781 272.242188 L 74.898438 299.953125 L 46.4375 298.769531 L 47.589844 271.058594 Z M 76.050781 272.242188 " clip-rule="nonzero"/></clipPath><clipPath id="43bb09f41b"><path d="M 76.050781 272.242188 L 74.894531 299.980469 L 46.417969 298.796875 L 47.570312 271.058594 Z M 76.050781 272.242188 " clip-rule="nonzero"/></clipPath><clipPath id="3d46d94381"><path d="M 76.050781 272.242188 L 74.898438 299.953125 L 46.4375 298.769531 L 47.589844 271.058594 Z M 76.050781 272.242188 " clip-rule="nonzero"/></clipPath><clipPath id="3c75701160"><path d="M 69 272 L 76 272 L 76 299.917969 L 69 299.917969 Z M 69 272 " clip-rule="nonzero"/></clipPath><clipPath id="325f29d796"><path d="M 76.050781 272.242188 L 74.898438 299.953125 L 46.4375 298.769531 L 47.589844 271.058594 Z M 76.050781 272.242188 " clip-rule="nonzero"/></clipPath><clipPath id="96e1b125ee"><path d="M 76.050781 272.242188 L 74.898438 299.953125 L 46.4375 298.769531 L 47.589844 271.058594 Z M 76.050781 272.242188 " clip-rule="nonzero"/></clipPath><clipPath id="4a3565e6e7"><path d="M 76.050781 272.242188 L 74.894531 299.980469 L 68.8125 299.730469 L 69.96875 271.988281 Z M 76.050781 272.242188 " clip-rule="nonzero"/></clipPath><clipPath id="711de992ad"><path d="M 76.050781 272.242188 L 74.898438 299.953125 L 68.816406 299.699219 L 69.96875 271.988281 Z M 76.050781 272.242188 " clip-rule="nonzero"/></clipPath><clipPath id="ed1fc09191"><path d="M 46 271 L 73 271 L 73 295 L 46 295 Z M 46 271 " clip-rule="nonzero"/></clipPath><clipPath id="d2cd03554d"><path d="M 76.050781 272.242188 L 74.898438 299.953125 L 46.4375 298.769531 L 47.589844 271.058594 Z M 76.050781 272.242188 " clip-rule="nonzero"/></clipPath><clipPath id="a87649da0a"><path d="M 76.050781 272.242188 L 74.898438 299.953125 L 46.4375 298.769531 L 47.589844 271.058594 Z M 76.050781 272.242188 " clip-rule="nonzero"/></clipPath><clipPath id="db983fd47a"><path d="M 72.074219 272.078125 L 71.140625 294.480469 L 46.640625 293.460938 L 47.570312 271.058594 Z M 72.074219 272.078125 " clip-rule="nonzero"/></clipPath><clipPath id="eb35fa82b8"><path d="M 72.074219 272.078125 L 71.140625 294.480469 L 46.65625 293.460938 L 47.589844 271.058594 Z M 72.074219 272.078125 " clip-rule="nonzero"/></clipPath></defs><g clip-path="url(#527090ed6c)"><g clip-path="url(#7d2f1a337a)"><g clip-path="url(#f70adf0a39)"><g clip-path="url(#be07a1ee24)"><g clip-path="url(#1333845ff4)"><path fill="#ff5757" d="M 89.984375 124.007812 L 23.929688 96.726562 L 7.402344 71.355469 L 41.671875 3.660156 L 114.410156 28.539062 L 118.832031 59.023438 L 89.984375 124.007812 " fill-opacity="1" fill-rule="nonzero"/></g></g></g></g></g><g clip-path="url(#ef4bc75a1d)"><g clip-path="url(#f576e2b18e)"><g clip-path="url(#0ab21b8d17)"><g clip-path="url(#7dc21cd9db)"><g clip-path="url(#eabadc6296)"><path fill="#00c2cb" d="M 81.480469 100.953125 L 114.410156 28.539062 L 118.832031 59.023438 L 89.984375 124.007812 L 81.480469 100.953125 " fill-opacity="1" fill-rule="nonzero"/></g></g></g></g></g><g clip-path="url(#1259755ff8)"><g clip-path="url(#2724dc07a4)"><g clip-path="url(#28d1bd7a62)"><g clip-path="url(#d1afd69ca9)"><g clip-path="url(#cc9fa4ea9a)"><path fill="#ffde59" d="M 41.671875 3.660156 L 114.410156 28.539062 L 81.476562 100.953125 L 7.398438 71.355469 L 41.671875 3.660156 " fill-opacity="1" fill-rule="nonzero"/></g></g></g></g></g><g clip-path="url(#76de692f82)"><g clip-path="url(#a526897ea0)"><g clip-path="url(#05659800b8)"><g clip-path="url(#2a90dd72cf)"><g clip-path="url(#ee3331a850)"><path fill="#ff5757" d="M 73.171875 132.613281 L 97.75 174.660156 L 96.277344 195.21875 L 49.898438 217.703125 L 20.714844 174.195312 L 30.84375 155.867188 L 73.171875 132.613281 " fill-opacity="1" fill-rule="nonzero"/></g></g></g></g></g><g clip-path="url(#5f36b52db9)"><g clip-path="url(#5b0e8109e6)"><g clip-path="url(#e72c483ae9)"><g clip-path="url(#3a45b55029)"><g clip-path="url(#5a6b6e535f)"><path fill="#00c2cb" d="M 68.304688 148.605469 L 20.714844 174.195312 L 30.84375 155.867188 L 73.171875 132.613281 L 68.304688 148.605469 " fill-opacity="1" fill-rule="nonzero"/></g></g></g></g></g><g clip-path="url(#b1cb5fe391)"><g clip-path="url(#bf8ebeb811)"><g clip-path="url(#cd7a6729e3)"><g clip-path="url(#a913642cb7)"><g clip-path="url(#4b823c2eaf)"><path fill="#ffde59" d="M 49.898438 217.703125 L 20.714844 174.195312 L 68.308594 148.605469 L 96.28125 195.21875 L 49.898438 217.703125 " fill-opacity="1" fill-rule="nonzero"/></g></g></g></g></g><g clip-path="url(#6da4597005)"><g clip-path="url(#0e2e3e0b7a)"><g clip-path="url(#767d724fc9)"><g clip-path="url(#be22a83a1a)"><g clip-path="url(#bef7e630b2)"><path fill="#ff5757" d="M 62.070312 251.679688 L 35.332031 270.710938 L 21.441406 270.957031 L 3.542969 241.167969 L 30.988281 218.957031 L 43.902344 224.65625 L 62.070312 251.679688 " fill-opacity="1" fill-rule="nonzero"/></g></g></g></g></g><g clip-path="url(#e2350839d3)"><g clip-path="url(#42406ac98f)"><g clip-path="url(#25ef06d6cb)"><g clip-path="url(#3e2e43367b)"><g clip-path="url(#ddd37936b4)"><path fill="#00c2cb" d="M 51.042969 249.375 L 30.988281 218.957031 L 43.902344 224.65625 L 62.070312 251.679688 L 51.042969 249.375 " fill-opacity="1" fill-rule="nonzero"/></g></g></g></g></g><g clip-path="url(#4614cbf28f)"><g clip-path="url(#c0e782a885)"><g clip-path="url(#bce02418c5)"><g clip-path="url(#5230eb565a)"><g clip-path="url(#b0cfe3cb6c)"><path fill="#ffde59" d="M 3.542969 241.167969 L 30.988281 218.957031 L 51.042969 249.375 L 21.441406 270.960938 L 3.542969 241.167969 " fill-opacity="1" fill-rule="nonzero"/></g></g></g></g></g><g clip-path="url(#bb865a55f5)"><g clip-path="url(#45dc22945d)"><g clip-path="url(#1225ee8b3f)"><g clip-path="url(#43bb09f41b)"><g clip-path="url(#3d46d94381)"><path fill="#ff5757" d="M 73.238281 299.882812 L 53.21875 297.902344 L 46.703125 292.390625 L 50.433594 271.289062 L 72.058594 272.078125 L 75.726562 279.957031 L 73.238281 299.882812 " fill-opacity="1" fill-rule="nonzero"/></g></g></g></g></g><g clip-path="url(#3c75701160)"><g clip-path="url(#325f29d796)"><g clip-path="url(#96e1b125ee)"><g clip-path="url(#4a3565e6e7)"><g clip-path="url(#711de992ad)"><path fill="#00c2cb" d="M 69.070312 294.34375 L 72.058594 272.078125 L 75.726562 279.957031 L 73.238281 299.882812 L 69.070312 294.34375 " fill-opacity="1" fill-rule="nonzero"/></g></g></g></g></g><g clip-path="url(#ed1fc09191)"><g clip-path="url(#d2cd03554d)"><g clip-path="url(#a87649da0a)"><g clip-path="url(#db983fd47a)"><g clip-path="url(#eb35fa82b8)"><path fill="#ffde59" d="M 50.433594 271.289062 L 72.058594 272.078125 L 69.070312 294.34375 L 46.699219 292.390625 L 50.433594 271.289062 " fill-opacity="1" fill-rule="nonzero"/></g></g></g></g></g></svg>