<?xml version="1.0" encoding="UTF-8"?>
<svg xmlns="http://www.w3.org/2000/svg" xmlns:xlink="http://www.w3.org/1999/xlink" width="105px" height="115" viewBox="25 205 105 115" version="1.2">
<defs>
<clipPath id="clip1">
  <path d="M 87 208 L 128 208 L 128 249 L 87 249 Z M 87 208 "/>
</clipPath>
<clipPath id="clip2">
  <path d="M 129.050781 213.234375 L 123.429688 248.792969 L 86.390625 242.9375 L 92.011719 207.378906 Z M 129.050781 213.234375 "/>
</clipPath>
<clipPath id="clip3">
  <path d="M 129.050781 213.234375 L 123.429688 248.792969 L 86.390625 242.9375 L 92.011719 207.378906 Z M 129.050781 213.234375 "/>
</clipPath>
<clipPath id="clip4">
  <path d="M 129.050781 213.234375 L 123.421875 248.832031 L 86.363281 242.972656 L 91.988281 207.375 Z M 129.050781 213.234375 "/>
</clipPath>
<clipPath id="clip5">
  <path d="M 129.050781 213.234375 L 123.429688 248.792969 L 86.390625 242.9375 L 92.011719 207.378906 Z M 129.050781 213.234375 "/>
</clipPath>
<clipPath id="clip6">
  <path d="M 116 212 L 128 212 L 128 249 L 116 249 Z M 116 212 "/>
</clipPath>
<clipPath id="clip7">
  <path d="M 129.050781 213.234375 L 123.429688 248.792969 L 86.390625 242.9375 L 92.011719 207.378906 Z M 129.050781 213.234375 "/>
</clipPath>
<clipPath id="clip8">
  <path d="M 129.050781 213.234375 L 123.429688 248.792969 L 86.390625 242.9375 L 92.011719 207.378906 Z M 129.050781 213.234375 "/>
</clipPath>
<clipPath id="clip9">
  <path d="M 129.050781 213.234375 L 123.421875 248.832031 L 115.507812 247.582031 L 121.136719 211.984375 Z M 129.050781 213.234375 "/>
</clipPath>
<clipPath id="clip10">
  <path d="M 129.050781 213.234375 L 123.429688 248.792969 L 115.515625 247.542969 L 121.136719 211.984375 Z M 129.050781 213.234375 "/>
</clipPath>
<clipPath id="clip11">
  <path d="M 87 208 L 124 208 L 124 241 L 87 241 Z M 87 208 "/>
</clipPath>
<clipPath id="clip12">
  <path d="M 129.050781 213.234375 L 123.429688 248.792969 L 86.390625 242.9375 L 92.011719 207.378906 Z M 129.050781 213.234375 "/>
</clipPath>
<clipPath id="clip13">
  <path d="M 129.050781 213.234375 L 123.429688 248.792969 L 86.390625 242.9375 L 92.011719 207.378906 Z M 129.050781 213.234375 "/>
</clipPath>
<clipPath id="clip14">
  <path d="M 123.875 212.417969 L 119.332031 241.164062 L 87.445312 236.125 L 91.988281 207.375 Z M 123.875 212.417969 "/>
</clipPath>
<clipPath id="clip15">
  <path d="M 123.875 212.417969 L 119.332031 241.164062 L 87.464844 236.128906 L 92.011719 207.378906 Z M 123.875 212.417969 "/>
</clipPath>
<clipPath id="clip16">
  <path d="M 28 211 L 77 211 L 77 263 L 28 263 Z M 28 211 "/>
</clipPath>
<clipPath id="clip17">
  <path d="M 79.160156 246.066406 L 41.753906 265.164062 L 21.972656 226.417969 L 59.382812 207.320312 Z M 79.160156 246.066406 "/>
</clipPath>
<clipPath id="clip18">
  <path d="M 79.160156 246.066406 L 41.753906 265.164062 L 21.972656 226.417969 L 59.382812 207.320312 Z M 79.160156 246.066406 "/>
</clipPath>
<clipPath id="clip19">
  <path d="M 79.15625 246.066406 L 41.71875 265.179688 L 21.925781 226.414062 L 59.367188 207.300781 Z M 79.15625 246.066406 "/>
</clipPath>
<clipPath id="clip20">
  <path d="M 79.15625 246.066406 L 41.757812 265.160156 L 21.976562 226.414062 L 59.378906 207.320312 Z M 79.15625 246.066406 "/>
</clipPath>
<clipPath id="clip21">
  <path d="M 40 240 L 77 240 L 77 263 L 40 263 Z M 40 240 "/>
</clipPath>
<clipPath id="clip22">
  <path d="M 79.160156 246.066406 L 41.753906 265.164062 L 21.972656 226.417969 L 59.382812 207.320312 Z M 79.160156 246.066406 "/>
</clipPath>
<clipPath id="clip23">
  <path d="M 79.160156 246.066406 L 41.753906 265.164062 L 21.972656 226.417969 L 59.382812 207.320312 Z M 79.160156 246.066406 "/>
</clipPath>
<clipPath id="clip24">
  <path d="M 79.15625 246.066406 L 41.71875 265.179688 L 37.492188 256.902344 L 74.929688 237.789062 Z M 79.15625 246.066406 "/>
</clipPath>
<clipPath id="clip25">
  <path d="M 79.15625 246.066406 L 41.757812 265.160156 L 37.53125 256.882812 L 74.929688 237.789062 Z M 79.15625 246.066406 "/>
</clipPath>
<clipPath id="clip26">
  <path d="M 30 211 L 77 211 L 77 254 L 30 254 Z M 30 211 "/>
</clipPath>
<clipPath id="clip27">
  <path d="M 79.160156 246.066406 L 41.753906 265.164062 L 21.972656 226.417969 L 59.382812 207.320312 Z M 79.160156 246.066406 "/>
</clipPath>
<clipPath id="clip28">
  <path d="M 79.160156 246.066406 L 41.753906 265.164062 L 21.972656 226.417969 L 59.382812 207.320312 Z M 79.160156 246.066406 "/>
</clipPath>
<clipPath id="clip29">
  <path d="M 76.394531 240.652344 L 46.15625 256.089844 L 29.128906 222.738281 L 59.367188 207.300781 Z M 76.394531 240.652344 "/>
</clipPath>
<clipPath id="clip30">
  <path d="M 76.394531 240.652344 L 46.15625 256.089844 L 29.140625 222.757812 L 59.378906 207.320312 Z M 76.394531 240.652344 "/>
</clipPath>
<clipPath id="clip31">
  <path d="M 42 277 L 83 277 L 83 315 L 42 315 Z M 42 277 "/>
</clipPath>
<clipPath id="clip32">
  <path d="M 51.757812 274.699219 L 83.074219 285.105469 L 72.429688 317.132812 L 41.113281 306.726562 Z M 51.757812 274.699219 "/>
</clipPath>
<clipPath id="clip33">
  <path d="M 51.757812 274.699219 L 83.074219 285.105469 L 72.429688 317.132812 L 41.113281 306.726562 Z M 51.757812 274.699219 "/>
</clipPath>
<clipPath id="clip34">
  <path d="M 51.761719 274.699219 L 83.101562 285.117188 L 72.449219 317.164062 L 41.109375 306.746094 Z M 51.761719 274.699219 "/>
</clipPath>
<clipPath id="clip35">
  <path d="M 51.761719 274.699219 L 83.066406 285.105469 L 72.421875 317.132812 L 41.117188 306.726562 Z M 51.761719 274.699219 "/>
</clipPath>
<clipPath id="clip36">
  <path d="M 50 277 L 83 277 L 83 290 L 50 290 Z M 50 277 "/>
</clipPath>
<clipPath id="clip37">
  <path d="M 51.757812 274.699219 L 83.074219 285.105469 L 72.429688 317.132812 L 41.113281 306.726562 Z M 51.757812 274.699219 "/>
</clipPath>
<clipPath id="clip38">
  <path d="M 51.757812 274.699219 L 83.074219 285.105469 L 72.429688 317.132812 L 41.113281 306.726562 Z M 51.757812 274.699219 "/>
</clipPath>
<clipPath id="clip39">
  <path d="M 51.761719 274.699219 L 83.101562 285.117188 L 80.828125 291.960938 L 49.488281 281.542969 Z M 51.761719 274.699219 "/>
</clipPath>
<clipPath id="clip40">
  <path d="M 51.761719 274.699219 L 83.066406 285.105469 L 80.792969 291.949219 L 49.488281 281.542969 Z M 51.761719 274.699219 "/>
</clipPath>
<clipPath id="clip41">
  <path d="M 42 279 L 75 279 L 75 315 L 42 315 Z M 42 279 "/>
</clipPath>
<clipPath id="clip42">
  <path d="M 51.757812 274.699219 L 83.074219 285.105469 L 72.429688 317.132812 L 41.113281 306.726562 Z M 51.757812 274.699219 "/>
</clipPath>
<clipPath id="clip43">
  <path d="M 51.757812 274.699219 L 83.074219 285.105469 L 72.429688 317.132812 L 41.113281 306.726562 Z M 51.757812 274.699219 "/>
</clipPath>
<clipPath id="clip44">
  <path d="M 50.273438 279.175781 L 75.585938 287.585938 L 66.421875 315.160156 L 41.109375 306.746094 Z M 50.273438 279.175781 "/>
</clipPath>
<clipPath id="clip45">
  <path d="M 50.273438 279.175781 L 75.585938 287.585938 L 66.425781 315.140625 L 41.117188 306.726562 Z M 50.273438 279.175781 "/>
</clipPath>
<clipPath id="clip46">
  <path d="M 82 295 L 109 295 L 109 319 L 82 319 Z M 82 295 "/>
</clipPath>
<clipPath id="clip47">
  <path d="M 98.921875 293.949219 L 109.214844 311.390625 L 91.128906 322.0625 L 80.835938 304.621094 Z M 98.921875 293.949219 "/>
</clipPath>
<clipPath id="clip48">
  <path d="M 98.921875 293.949219 L 109.214844 311.390625 L 91.128906 322.0625 L 80.835938 304.621094 Z M 98.921875 293.949219 "/>
</clipPath>
<clipPath id="clip49">
  <path d="M 98.921875 293.953125 L 109.222656 311.410156 L 91.128906 322.085938 L 80.828125 304.628906 Z M 98.921875 293.953125 "/>
</clipPath>
<clipPath id="clip50">
  <path d="M 98.921875 293.953125 L 109.210938 311.390625 L 91.128906 322.0625 L 80.835938 304.621094 Z M 98.921875 293.953125 "/>
</clipPath>
<clipPath id="clip51">
  <path d="M 96 295 L 109 295 L 109 313 L 96 313 Z M 96 295 "/>
</clipPath>
<clipPath id="clip52">
  <path d="M 98.921875 293.949219 L 109.214844 311.390625 L 91.128906 322.0625 L 80.835938 304.621094 Z M 98.921875 293.949219 "/>
</clipPath>
<clipPath id="clip53">
  <path d="M 98.921875 293.949219 L 109.214844 311.390625 L 91.128906 322.0625 L 80.835938 304.621094 Z M 98.921875 293.949219 "/>
</clipPath>
<clipPath id="clip54">
  <path d="M 98.921875 293.953125 L 109.222656 311.410156 L 105.359375 313.691406 L 95.058594 296.230469 Z M 98.921875 293.953125 "/>
</clipPath>
<clipPath id="clip55">
  <path d="M 98.921875 293.953125 L 109.210938 311.390625 L 105.347656 313.671875 L 95.058594 296.230469 Z M 98.921875 293.953125 "/>
</clipPath>
<clipPath id="clip56">
  <path d="M 82 295 L 104 295 L 104 319 L 82 319 Z M 82 295 "/>
</clipPath>
<clipPath id="clip57">
  <path d="M 98.921875 293.949219 L 109.214844 311.390625 L 91.128906 322.0625 L 80.835938 304.621094 Z M 98.921875 293.949219 "/>
</clipPath>
<clipPath id="clip58">
  <path d="M 98.921875 293.949219 L 109.214844 311.390625 L 91.128906 322.0625 L 80.835938 304.621094 Z M 98.921875 293.949219 "/>
</clipPath>
<clipPath id="clip59">
  <path d="M 96.394531 295.441406 L 104.714844 309.542969 L 89.144531 318.726562 L 80.828125 304.628906 Z M 96.394531 295.441406 "/>
</clipPath>
<clipPath id="clip60">
  <path d="M 96.394531 295.441406 L 104.714844 309.542969 L 89.15625 318.722656 L 80.835938 304.621094 Z M 96.394531 295.441406 "/>
</clipPath>
<clipPath id="clip61">
  <path d="M 93 261 L 121 261 L 121 289 L 93 289 Z M 93 261 "/>
</clipPath>
<clipPath id="clip62">
  <path d="M 92.546875 266.328125 L 116.410156 259.765625 L 123.171875 284.351562 L 99.308594 290.914062 Z M 92.546875 266.328125 "/>
</clipPath>
<clipPath id="clip63">
  <path d="M 92.546875 266.328125 L 116.410156 259.765625 L 123.171875 284.351562 L 99.308594 290.914062 Z M 92.546875 266.328125 "/>
</clipPath>
<clipPath id="clip64">
  <path d="M 92.550781 266.328125 L 116.433594 259.757812 L 123.199219 284.363281 L 99.316406 290.929688 Z M 92.550781 266.328125 "/>
</clipPath>
<clipPath id="clip65">
  <path d="M 92.550781 266.328125 L 116.40625 259.765625 L 123.167969 284.355469 L 99.3125 290.914062 Z M 92.550781 266.328125 "/>
</clipPath>
<clipPath id="clip66">
  <path d="M 93 261 L 117 261 L 117 270 L 93 270 Z M 93 261 "/>
</clipPath>
<clipPath id="clip67">
  <path d="M 92.546875 266.328125 L 116.410156 259.765625 L 123.171875 284.351562 L 99.308594 290.914062 Z M 92.546875 266.328125 "/>
</clipPath>
<clipPath id="clip68">
  <path d="M 92.546875 266.328125 L 116.410156 259.765625 L 123.171875 284.351562 L 99.308594 290.914062 Z M 92.546875 266.328125 "/>
</clipPath>
<clipPath id="clip69">
  <path d="M 92.550781 266.328125 L 116.433594 259.757812 L 117.875 265.011719 L 93.996094 271.582031 Z M 92.550781 266.328125 "/>
</clipPath>
<clipPath id="clip70">
  <path d="M 92.550781 266.328125 L 116.40625 259.765625 L 117.851562 265.019531 L 93.996094 271.582031 Z M 92.550781 266.328125 "/>
</clipPath>
<clipPath id="clip71">
  <path d="M 93 266 L 118 266 L 118 289 L 93 289 Z M 93 266 "/>
</clipPath>
<clipPath id="clip72">
  <path d="M 92.546875 266.328125 L 116.410156 259.765625 L 123.171875 284.351562 L 99.308594 290.914062 Z M 92.546875 266.328125 "/>
</clipPath>
<clipPath id="clip73">
  <path d="M 92.546875 266.328125 L 116.410156 259.765625 L 123.171875 284.351562 L 99.308594 290.914062 Z M 92.546875 266.328125 "/>
</clipPath>
<clipPath id="clip74">
  <path d="M 93.496094 269.761719 L 112.78125 264.457031 L 118.601562 285.625 L 99.316406 290.929688 Z M 93.496094 269.761719 "/>
</clipPath>
<clipPath id="clip75">
  <path d="M 93.496094 269.761719 L 112.78125 264.457031 L 118.597656 285.609375 L 99.3125 290.914062 Z M 93.496094 269.761719 "/>
</clipPath>
</defs>
<g id="surface1">
<g clip-path="url(#clip1)" clip-rule="nonzero">
<g clip-path="url(#clip2)" clip-rule="nonzero">
<g clip-path="url(#clip3)" clip-rule="nonzero">
<g clip-path="url(#clip4)" clip-rule="nonzero">
<g clip-path="url(#clip5)" clip-rule="nonzero">
<path style=" stroke:none;fill-rule:nonzero;fill:rgb(100%,34.118652%,34.118652%);fill-opacity:1;" d="M 121.269531 248.453125 L 95.386719 242.851562 L 87.683594 234.753906 L 95.695312 208.109375 L 123.855469 212.414062 L 127.484375 223.136719 L 121.269531 248.453125 "/>
</g>
</g>
</g>
</g>
</g>
<g clip-path="url(#clip6)" clip-rule="nonzero">
<g clip-path="url(#clip7)" clip-rule="nonzero">
<g clip-path="url(#clip8)" clip-rule="nonzero">
<g clip-path="url(#clip9)" clip-rule="nonzero">
<g clip-path="url(#clip10)" clip-rule="nonzero">
<path style=" stroke:none;fill-rule:nonzero;fill:rgb(0%,76.078796%,79.60968%);fill-opacity:1;" d="M 116.644531 240.675781 L 123.855469 212.414062 L 127.484375 223.136719 L 121.269531 248.453125 L 116.644531 240.675781 "/>
</g>
</g>
</g>
</g>
</g>
<g clip-path="url(#clip11)" clip-rule="nonzero">
<g clip-path="url(#clip12)" clip-rule="nonzero">
<g clip-path="url(#clip13)" clip-rule="nonzero">
<g clip-path="url(#clip14)" clip-rule="nonzero">
<g clip-path="url(#clip15)" clip-rule="nonzero">
<path style=" stroke:none;fill-rule:nonzero;fill:rgb(100%,87.059021%,34.899902%);fill-opacity:1;" d="M 95.695312 208.109375 L 123.855469 212.414062 L 116.640625 240.675781 L 87.683594 234.753906 L 95.695312 208.109375 "/>
</g>
</g>
</g>
</g>
</g>
<g clip-path="url(#clip16)" clip-rule="nonzero">
<g clip-path="url(#clip17)" clip-rule="nonzero">
<g clip-path="url(#clip18)" clip-rule="nonzero">
<g clip-path="url(#clip19)" clip-rule="nonzero">
<g clip-path="url(#clip20)" clip-rule="nonzero">
<path style=" stroke:none;fill-rule:nonzero;fill:rgb(100%,34.118652%,34.118652%);fill-opacity:1;" d="M 40.605469 262.898438 L 28.207031 234.792969 L 30.585938 222.019531 L 61.207031 211.277344 L 76.382812 240.632812 L 68.742188 251.382812 L 40.605469 262.898438 "/>
</g>
</g>
</g>
</g>
</g>
<g clip-path="url(#clip21)" clip-rule="nonzero">
<g clip-path="url(#clip22)" clip-rule="nonzero">
<g clip-path="url(#clip23)" clip-rule="nonzero">
<g clip-path="url(#clip24)" clip-rule="nonzero">
<g clip-path="url(#clip25)" clip-rule="nonzero">
<path style=" stroke:none;fill-rule:nonzero;fill:rgb(0%,76.078796%,79.60968%);fill-opacity:1;" d="M 44.785156 253.234375 L 76.382812 240.632812 L 68.742188 251.382812 L 40.605469 262.898438 L 44.785156 253.234375 "/>
</g>
</g>
</g>
</g>
</g>
<g clip-path="url(#clip26)" clip-rule="nonzero">
<g clip-path="url(#clip27)" clip-rule="nonzero">
<g clip-path="url(#clip28)" clip-rule="nonzero">
<g clip-path="url(#clip29)" clip-rule="nonzero">
<g clip-path="url(#clip30)" clip-rule="nonzero">
<path style=" stroke:none;fill-rule:nonzero;fill:rgb(100%,87.059021%,34.899902%);fill-opacity:1;" d="M 61.207031 211.277344 L 76.382812 240.632812 L 44.78125 253.234375 L 30.585938 222.019531 L 61.207031 211.277344 "/>
</g>
</g>
</g>
</g>
</g>
<g clip-path="url(#clip31)" clip-rule="nonzero">
<g clip-path="url(#clip32)" clip-rule="nonzero">
<g clip-path="url(#clip33)" clip-rule="nonzero">
<g clip-path="url(#clip34)" clip-rule="nonzero">
<g clip-path="url(#clip35)" clip-rule="nonzero">
<path style=" stroke:none;fill-rule:nonzero;fill:rgb(100%,34.118652%,34.118652%);fill-opacity:1;" d="M 82.445312 286.972656 L 73.644531 309.125 L 65.214844 314.738281 L 42.308594 303.5625 L 50.269531 279.191406 L 60.480469 277.597656 L 82.445312 286.972656 "/>
</g>
</g>
</g>
</g>
</g>
<g clip-path="url(#clip36)" clip-rule="nonzero">
<g clip-path="url(#clip37)" clip-rule="nonzero">
<g clip-path="url(#clip38)" clip-rule="nonzero">
<g clip-path="url(#clip39)" clip-rule="nonzero">
<g clip-path="url(#clip40)" clip-rule="nonzero">
<path style=" stroke:none;fill-rule:nonzero;fill:rgb(0%,76.078796%,79.60968%);fill-opacity:1;" d="M 74.753906 289.902344 L 50.269531 279.191406 L 60.480469 277.597656 L 82.445312 286.972656 L 74.753906 289.902344 "/>
</g>
</g>
</g>
</g>
</g>
<g clip-path="url(#clip41)" clip-rule="nonzero">
<g clip-path="url(#clip42)" clip-rule="nonzero">
<g clip-path="url(#clip43)" clip-rule="nonzero">
<g clip-path="url(#clip44)" clip-rule="nonzero">
<g clip-path="url(#clip45)" clip-rule="nonzero">
<path style=" stroke:none;fill-rule:nonzero;fill:rgb(100%,87.059021%,34.899902%);fill-opacity:1;" d="M 42.308594 303.5625 L 50.269531 279.191406 L 74.753906 289.902344 L 65.214844 314.738281 L 42.308594 303.5625 "/>
</g>
</g>
</g>
</g>
</g>
<g clip-path="url(#clip46)" clip-rule="nonzero">
<g clip-path="url(#clip47)" clip-rule="nonzero">
<g clip-path="url(#clip48)" clip-rule="nonzero">
<g clip-path="url(#clip49)" clip-rule="nonzero">
<g clip-path="url(#clip50)" clip-rule="nonzero">
<path style=" stroke:none;fill-rule:nonzero;fill:rgb(100%,34.118652%,34.118652%);fill-opacity:1;" d="M 108.15625 312.011719 L 94.980469 318.8125 L 88.757812 318.046875 L 82.6875 303.625 L 96.386719 295.449219 L 101.785156 298.808594 L 108.15625 312.011719 "/>
</g>
</g>
</g>
</g>
</g>
<g clip-path="url(#clip51)" clip-rule="nonzero">
<g clip-path="url(#clip52)" clip-rule="nonzero">
<g clip-path="url(#clip53)" clip-rule="nonzero">
<g clip-path="url(#clip54)" clip-rule="nonzero">
<g clip-path="url(#clip55)" clip-rule="nonzero">
<path style=" stroke:none;fill-rule:nonzero;fill:rgb(0%,76.078796%,79.60968%);fill-opacity:1;" d="M 103.378906 310.289062 L 96.386719 295.449219 L 101.785156 298.808594 L 108.15625 312.011719 L 103.378906 310.289062 "/>
</g>
</g>
</g>
</g>
</g>
<g clip-path="url(#clip56)" clip-rule="nonzero">
<g clip-path="url(#clip57)" clip-rule="nonzero">
<g clip-path="url(#clip58)" clip-rule="nonzero">
<g clip-path="url(#clip59)" clip-rule="nonzero">
<g clip-path="url(#clip60)" clip-rule="nonzero">
<path style=" stroke:none;fill-rule:nonzero;fill:rgb(100%,87.059021%,34.899902%);fill-opacity:1;" d="M 82.6875 303.625 L 96.386719 295.449219 L 103.378906 310.289062 L 88.757812 318.046875 L 82.6875 303.625 "/>
</g>
</g>
</g>
</g>
</g>
<g clip-path="url(#clip61)" clip-rule="nonzero">
<g clip-path="url(#clip62)" clip-rule="nonzero">
<g clip-path="url(#clip63)" clip-rule="nonzero">
<g clip-path="url(#clip64)" clip-rule="nonzero">
<g clip-path="url(#clip65)" clip-rule="nonzero">
<path style=" stroke:none;fill-rule:nonzero;fill:rgb(100%,34.118652%,34.118652%);fill-opacity:1;" d="M 116.800781 261.199219 L 120.578125 278.808594 L 117.675781 285.863281 L 98.730469 288.425781 L 93.5 269.773438 L 99.195312 264.5 L 116.800781 261.199219 "/>
</g>
</g>
</g>
</g>
</g>
<g clip-path="url(#clip66)" clip-rule="nonzero">
<g clip-path="url(#clip67)" clip-rule="nonzero">
<g clip-path="url(#clip68)" clip-rule="nonzero">
<g clip-path="url(#clip69)" clip-rule="nonzero">
<g clip-path="url(#clip70)" clip-rule="nonzero">
<path style=" stroke:none;fill-rule:nonzero;fill:rgb(0%,76.078796%,79.60968%);fill-opacity:1;" d="M 113.230469 266.261719 L 93.5 269.773438 L 99.195312 264.5 L 116.800781 261.199219 L 113.230469 266.261719 "/>
</g>
</g>
</g>
</g>
</g>
<g clip-path="url(#clip71)" clip-rule="nonzero">
<g clip-path="url(#clip72)" clip-rule="nonzero">
<g clip-path="url(#clip73)" clip-rule="nonzero">
<g clip-path="url(#clip74)" clip-rule="nonzero">
<g clip-path="url(#clip75)" clip-rule="nonzero">
<path style=" stroke:none;fill-rule:nonzero;fill:rgb(100%,87.059021%,34.899902%);fill-opacity:1;" d="M 98.730469 288.425781 L 93.5 269.773438 L 113.230469 266.261719 L 117.675781 285.863281 L 98.730469 288.425781 "/>
</g>
</g>
</g>
</g>
</g>
</g>
</svg>
