<?xml version="1.0" encoding="UTF-8"?>
<svg xmlns="http://www.w3.org/2000/svg" xmlns:xlink="http://www.w3.org/1999/xlink" width="140px" height="165px" viewBox="0 0 140 165" version="1.2">
<defs>
<clipPath id="clip1">
  <path d="M 27 158 L 114 158 L 114 163.5 L 27 163.5 Z M 27 158 "/>
</clipPath>
</defs>
<g id="surface1">
<path style=" stroke:none;fill-rule:nonzero;fill:rgb(98.429871%,79.219055%,28.239441%);fill-opacity:1;" d="M 114.410156 -0.0078125 L 114.410156 54.273438 C 114.410156 54.273438 104.867188 80.957031 78.886719 87.632812 L 78.886719 117.175781 L 61.925781 117.175781 L 61.925781 87.632812 C 35.9375 80.957031 26.402344 54.273438 26.402344 54.273438 L 26.402344 -0.0078125 L 114.410156 -0.0078125 "/>
<path style=" stroke:none;fill-rule:nonzero;fill:rgb(98.429871%,79.219055%,28.239441%);fill-opacity:1;" d="M 30.378906 56.734375 C 16.109375 53.824219 6.652344 44.441406 3.003906 29.609375 C 0.363281 18.832031 1.78125 9.003906 1.839844 8.589844 L 2.332031 5.34375 L 31.132812 5.34375 L 31.132812 12.96875 L 9.03125 12.96875 C 8.539062 21.621094 9.417969 44.675781 31.878906 49.257812 L 30.378906 56.734375 "/>
<path style=" stroke:none;fill-rule:nonzero;fill:rgb(98.429871%,79.219055%,28.239441%);fill-opacity:1;" d="M 110.433594 56.734375 L 108.933594 49.257812 C 131.386719 44.683594 132.273438 21.632812 131.78125 12.96875 L 109.6875 12.96875 L 109.6875 5.34375 L 138.480469 5.34375 L 138.964844 8.589844 C 139.03125 9.003906 140.449219 18.832031 137.800781 29.609375 C 134.167969 44.441406 124.703125 53.824219 110.433594 56.734375 "/>
<path style=" stroke:none;fill-rule:nonzero;fill:rgb(31.759644%,33.329773%,56.079102%);fill-opacity:1;" d="M 99.511719 124.328125 L 41.300781 124.328125 L 44.933594 117.175781 L 95.410156 117.175781 L 99.511719 124.328125 "/>
<path style=" stroke:none;fill-rule:nonzero;fill:rgb(31.759644%,33.329773%,56.079102%);fill-opacity:1;" d="M 107.628906 158.15625 L 33.183594 158.15625 L 33.183594 124.328125 L 107.628906 124.328125 L 107.628906 158.15625 "/>
<g clip-path="url(#clip1)" clip-rule="nonzero">
<path style=" stroke:none;fill-rule:nonzero;fill:rgb(18.429565%,28.62854%,48.239136%);fill-opacity:1;" d="M 113.78125 163.871094 L 27.03125 163.871094 L 27.03125 158.15625 L 113.78125 158.15625 L 113.78125 163.871094 "/>
</g>
<path style=" stroke:none;fill-rule:nonzero;fill:rgb(98.429871%,79.219055%,28.239441%);fill-opacity:1;" d="M 93.746094 152.839844 L 47.066406 152.839844 L 47.066406 129.644531 L 93.746094 129.644531 L 93.746094 152.839844 "/>
</g>
</svg>
