<?xml version="1.0" encoding="UTF-8"?>
<svg xmlns="http://www.w3.org/2000/svg" xmlns:xlink="http://www.w3.org/1999/xlink" width="120px" height="135px" viewBox="0 0 120 135" version="1.2">
<defs>
<filter id="alpha" filterUnits="objectBoundingBox" x="0%" y="0%" width="100%" height="100%">
  <feColorMatrix type="matrix" in="SourceGraphic" values="0 0 0 0 1 0 0 0 0 1 0 0 0 0 1 0 0 0 1 0"/>
</filter>
<mask id="mask0">
  <g filter="url(#alpha)">
<rect x="0" y="0" width="375" height="374.999991" style="fill:rgb(0%,0%,0%);fill-opacity:0.8667;stroke:none;"/>
  </g>
</mask>
<clipPath id="clip1">
  <rect x="0" y="0" width="122" height="138"/>
</clipPath>
<g id="surface5" clip-path="url(#clip1)">
<path style=" stroke:none;fill-rule:nonzero;fill:rgb(16.468811%,18.03894%,18.818665%);fill-opacity:1;" d="M 72.570312 56.640625 C 68.695312 56.640625 65.640625 59.972656 65.640625 64.128906 C 65.640625 68.285156 68.765625 71.617188 72.570312 71.617188 C 76.441406 71.617188 79.496094 68.285156 79.496094 64.128906 C 79.496094 59.972656 76.371094 56.640625 72.570312 56.640625 Z M 47.777344 56.640625 C 43.902344 56.640625 40.847656 59.972656 40.847656 64.128906 C 40.847656 68.285156 43.972656 71.617188 47.777344 71.617188 C 51.648438 71.617188 54.703125 68.285156 54.703125 64.128906 C 54.773438 59.972656 51.648438 56.640625 47.777344 56.640625 Z M 105.582031 0 L 14.5625 0 C 13.648438 0 12.742188 0.09375 11.847656 0.273438 C 10.949219 0.453125 10.082031 0.71875 9.238281 1.070312 C 8.394531 1.421875 7.589844 1.851562 6.832031 2.359375 C 6.074219 2.871094 5.371094 3.449219 4.722656 4.097656 C 4.078125 4.742188 3.5 5.449219 2.992188 6.210938 C 2.484375 6.96875 2.054688 7.773438 1.703125 8.621094 C 1.355469 9.464844 1.089844 10.335938 0.910156 11.234375 C 0.730469 12.132812 0.640625 13.039062 0.636719 13.957031 L 0.636719 105.183594 C 0.640625 106.097656 0.730469 107.003906 0.910156 107.902344 C 1.089844 108.800781 1.355469 109.671875 1.703125 110.519531 C 2.054688 111.363281 2.484375 112.167969 2.992188 112.929688 C 3.5 113.6875 4.078125 114.394531 4.722656 115.042969 C 5.371094 115.6875 6.074219 116.265625 6.832031 116.777344 C 7.589844 117.285156 8.394531 117.714844 9.238281 118.066406 C 10.082031 118.417969 10.949219 118.683594 11.847656 118.863281 C 12.742188 119.042969 13.648438 119.136719 14.5625 119.136719 L 91.589844 119.136719 L 88.011719 106.679688 L 96.703125 114.710938 L 104.921875 122.269531 L 119.574219 135 L 119.574219 13.957031 C 119.507812 6.265625 113.257812 0 105.582031 0 Z M 79.363281 88.160156 L 74.878906 82.714844 C 83.777344 80.195312 87.175781 74.683594 87.175781 74.683594 C 84.390625 76.515625 81.742188 77.816406 79.363281 78.699219 C 75.964844 80.128906 72.707031 81.011719 69.511719 81.625 C 62.992188 82.851562 57.015625 82.511719 51.917969 81.558594 C 48.046875 80.808594 44.71875 79.785156 41.933594 78.632812 C 40.371094 78 38.671875 77.269531 36.976562 76.316406 C 36.769531 76.179688 36.566406 76.113281 36.34375 75.980469 C 36.207031 75.914062 36.140625 75.84375 36.070312 75.84375 L 34.167969 74.683594 C 34.167969 74.683594 37.429688 80.0625 46.054688 82.648438 L 41.503906 88.230469 C 26.492188 87.753906 20.785156 77.949219 20.785156 77.949219 C 20.785156 56.230469 30.570312 38.597656 30.570312 38.597656 C 40.351562 31.316406 49.589844 31.519531 49.589844 31.519531 L 50.269531 32.335938 C 38.0625 35.804688 32.472656 41.183594 32.472656 41.183594 C 32.472656 41.183594 33.945312 40.371094 36.480469 39.277344 C 43.746094 36.078125 49.519531 35.261719 51.898438 34.992188 C 52.304688 34.921875 52.644531 34.851562 53.054688 34.851562 C 57.621094 34.257812 62.195312 34.210938 66.773438 34.714844 C 74.003906 35.550781 80.820312 37.707031 87.222656 41.183594 C 87.222656 41.183594 81.855469 36.078125 70.308594 32.605469 L 71.257812 31.515625 C 71.257812 31.515625 80.566406 31.3125 90.277344 38.597656 C 99.992188 45.882812 100.0625 56.230469 100.0625 77.949219 C 100.0625 77.878906 94.378906 87.683594 79.34375 88.15625 Z M 79.363281 88.160156 "/>
</g>
</defs>
<g id="surface1">
<use xlink:href="#surface5" transform="matrix(1,0,0,1,0,0)" mask="url(#mask0)"/>
</g>
</svg>
