<?xml version="1.0" encoding="UTF-8"?>
<svg xmlns="http://www.w3.org/2000/svg" xmlns:xlink="http://www.w3.org/1999/xlink" width="220px" height="65px" viewBox="0 0 220 65" version="1.2">
<g id="surface1">
<path style=" stroke:none;fill-rule:nonzero;fill:rgb(42.349243%,89.7995%,90.979004%);fill-opacity:1;" d="M 17.503906 0 C 17.121094 0 16.742188 0.0390625 16.367188 0.113281 C 15.992188 0.1875 15.628906 0.296875 15.273438 0.445312 C 14.921875 0.589844 14.585938 0.769531 14.265625 0.984375 C 13.949219 1.195312 13.652344 1.4375 13.382812 1.710938 C 13.113281 1.980469 12.871094 2.277344 12.65625 2.59375 C 12.445312 2.914062 12.265625 3.25 12.117188 3.605469 C 11.972656 3.957031 11.859375 4.324219 11.785156 4.699219 C 11.710938 5.074219 11.675781 5.457031 11.675781 5.839844 L 11.675781 7.785156 C 11.675781 8.167969 11.710938 8.546875 11.785156 8.925781 C 11.859375 9.300781 11.972656 9.664062 12.117188 10.019531 C 12.265625 10.375 12.445312 10.710938 12.65625 11.027344 C 12.871094 11.347656 13.113281 11.640625 13.382812 11.914062 C 13.652344 12.183594 13.949219 12.425781 14.265625 12.640625 C 14.585938 12.851562 14.921875 13.03125 15.273438 13.179688 C 15.628906 13.324219 15.992188 13.4375 16.367188 13.511719 C 16.742188 13.585938 17.121094 13.625 17.503906 13.625 C 17.886719 13.625 18.265625 13.585938 18.644531 13.511719 C 19.019531 13.4375 19.382812 13.324219 19.738281 13.179688 C 20.089844 13.03125 20.425781 12.851562 20.746094 12.640625 C 21.0625 12.425781 21.359375 12.183594 21.628906 11.914062 C 21.898438 11.640625 22.140625 11.347656 22.355469 11.027344 C 22.566406 10.710938 22.746094 10.375 22.890625 10.019531 C 23.039062 9.664062 23.148438 9.300781 23.222656 8.925781 C 23.300781 8.546875 23.335938 8.167969 23.335938 7.785156 L 23.335938 5.839844 C 23.335938 5.457031 23.300781 5.074219 23.222656 4.699219 C 23.148438 4.324219 23.039062 3.957031 22.890625 3.605469 C 22.746094 3.25 22.566406 2.914062 22.355469 2.59375 C 22.140625 2.277344 21.898438 1.980469 21.628906 1.710938 C 21.359375 1.4375 21.0625 1.195312 20.746094 0.984375 C 20.425781 0.769531 20.089844 0.589844 19.738281 0.445312 C 19.382812 0.296875 19.019531 0.1875 18.644531 0.113281 C 18.265625 0.0390625 17.886719 0 17.503906 0 Z M 11.464844 26.757812 C 11.5 26.53125 11.183594 26.445312 11.097656 26.652344 L 6.855469 36.566406 C 6.703125 36.914062 6.507812 37.238281 6.261719 37.53125 C 6.019531 37.820312 5.738281 38.074219 5.417969 38.28125 C 5.101562 38.492188 4.761719 38.652344 4.394531 38.761719 C 4.03125 38.871094 3.660156 38.925781 3.277344 38.925781 L 1.484375 38.925781 C 1.324219 38.925781 1.167969 38.886719 1.023438 38.808594 C 0.878906 38.730469 0.765625 38.625 0.671875 38.488281 C 0.582031 38.351562 0.53125 38.199219 0.515625 38.039062 C 0.503906 37.875 0.527344 37.71875 0.589844 37.566406 L 5.84375 25.300781 L 7.777344 20.460938 C 8.0625 19.742188 8.453125 19.078125 8.9375 18.472656 C 9.425781 17.863281 9.992188 17.34375 10.636719 16.90625 C 11.277344 16.472656 11.972656 16.140625 12.714844 15.910156 C 13.457031 15.683594 14.21875 15.570312 14.992188 15.570312 L 20.015625 15.570312 C 20.792969 15.570312 21.554688 15.683594 22.296875 15.910156 C 23.039062 16.140625 23.730469 16.472656 24.375 16.90625 C 25.019531 17.34375 25.582031 17.863281 26.070312 18.46875 C 26.558594 19.078125 26.945312 19.742188 27.234375 20.460938 L 29.167969 25.300781 L 34.417969 37.566406 C 34.480469 37.71875 34.507812 37.875 34.492188 38.039062 C 34.476562 38.199219 34.425781 38.351562 34.335938 38.488281 C 34.246094 38.625 34.128906 38.730469 33.984375 38.808594 C 33.839844 38.886719 33.6875 38.925781 33.523438 38.925781 L 31.730469 38.925781 C 31.351562 38.925781 30.976562 38.871094 30.613281 38.761719 C 30.25 38.652344 29.910156 38.492188 29.589844 38.28125 C 29.273438 38.070312 28.992188 37.820312 28.75 37.527344 C 28.503906 37.238281 28.308594 36.914062 28.160156 36.566406 L 23.914062 26.652344 C 23.824219 26.445312 23.511719 26.53125 23.542969 26.757812 L 25.28125 38.925781 L 27.136719 61.226562 C 27.148438 61.363281 27.128906 61.492188 27.085938 61.621094 C 27.042969 61.75 26.972656 61.863281 26.882812 61.964844 C 26.789062 62.066406 26.683594 62.140625 26.558594 62.195312 C 26.433594 62.25 26.304688 62.277344 26.167969 62.277344 L 24.683594 62.277344 C 24.226562 62.277344 23.777344 62.199219 23.347656 62.042969 C 22.914062 61.882812 22.523438 61.65625 22.171875 61.355469 C 21.820312 61.058594 21.53125 60.710938 21.304688 60.308594 C 21.078125 59.910156 20.925781 59.480469 20.851562 59.027344 L 17.699219 40.078125 C 17.664062 39.859375 17.351562 39.859375 17.316406 40.078125 L 14.164062 59.027344 C 14.085938 59.480469 13.933594 59.910156 13.707031 60.308594 C 13.480469 60.710938 13.191406 61.058594 12.839844 61.359375 C 12.488281 61.65625 12.097656 61.882812 11.664062 62.042969 C 11.230469 62.199219 10.785156 62.277344 10.324219 62.277344 L 8.84375 62.277344 C 8.707031 62.277344 8.578125 62.25 8.453125 62.195312 C 8.328125 62.140625 8.21875 62.066406 8.128906 61.964844 C 8.035156 61.863281 7.96875 61.75 7.925781 61.621094 C 7.878906 61.492188 7.863281 61.363281 7.875 61.226562 L 9.730469 38.925781 Z M 54.242188 0 C 53.855469 0 53.476562 0.0390625 53.101562 0.113281 C 52.726562 0.1875 52.363281 0.296875 52.007812 0.445312 C 51.65625 0.589844 51.320312 0.769531 51 0.984375 C 50.683594 1.195312 50.386719 1.4375 50.117188 1.710938 C 49.847656 1.980469 49.605469 2.277344 49.390625 2.59375 C 49.179688 2.914062 49 3.25 48.851562 3.605469 C 48.707031 3.957031 48.597656 4.324219 48.519531 4.699219 C 48.445312 5.074219 48.410156 5.457031 48.410156 5.839844 L 48.410156 7.785156 C 48.410156 8.167969 48.445312 8.546875 48.519531 8.925781 C 48.597656 9.300781 48.707031 9.664062 48.851562 10.019531 C 49 10.375 49.179688 10.710938 49.390625 11.027344 C 49.605469 11.347656 49.847656 11.640625 50.117188 11.914062 C 50.386719 12.183594 50.683594 12.425781 51 12.640625 C 51.320312 12.851562 51.65625 13.03125 52.007812 13.179688 C 52.363281 13.324219 52.726562 13.4375 53.101562 13.511719 C 53.476562 13.585938 53.855469 13.625 54.242188 13.625 C 54.625 13.625 55.003906 13.585938 55.378906 13.511719 C 55.753906 13.4375 56.117188 13.324219 56.472656 13.179688 C 56.824219 13.03125 57.160156 12.851562 57.480469 12.640625 C 57.796875 12.425781 58.09375 12.183594 58.363281 11.914062 C 58.632812 11.640625 58.875 11.347656 59.089844 11.027344 C 59.300781 10.710938 59.480469 10.375 59.628906 10.019531 C 59.773438 9.664062 59.882812 9.300781 59.960938 8.925781 C 60.035156 8.546875 60.070312 8.167969 60.070312 7.785156 L 60.070312 5.839844 C 60.070312 5.457031 60.035156 5.074219 59.960938 4.699219 C 59.882812 4.324219 59.773438 3.957031 59.628906 3.605469 C 59.480469 3.25 59.300781 2.914062 59.089844 2.59375 C 58.875 2.277344 58.632812 1.980469 58.363281 1.710938 C 58.09375 1.4375 57.796875 1.195312 57.480469 0.984375 C 57.160156 0.769531 56.824219 0.589844 56.472656 0.445312 C 56.117188 0.296875 55.753906 0.1875 55.378906 0.113281 C 55.003906 0.0390625 54.625 0 54.242188 0 Z M 48.203125 26.757812 C 48.234375 26.53125 47.917969 26.445312 47.832031 26.652344 L 43.589844 36.566406 C 43.4375 36.914062 43.242188 37.238281 42.996094 37.53125 C 42.753906 37.820312 42.472656 38.074219 42.15625 38.28125 C 41.835938 38.492188 41.496094 38.652344 41.128906 38.761719 C 40.765625 38.871094 40.394531 38.925781 40.011719 38.925781 L 38.222656 38.925781 C 38.058594 38.925781 37.902344 38.886719 37.757812 38.808594 C 37.617188 38.730469 37.5 38.625 37.410156 38.488281 C 37.320312 38.351562 37.265625 38.199219 37.25 38.039062 C 37.238281 37.875 37.261719 37.71875 37.328125 37.566406 L 42.578125 25.300781 L 44.511719 20.460938 C 44.800781 19.742188 45.1875 19.078125 45.675781 18.472656 C 46.160156 17.863281 46.726562 17.34375 47.371094 16.90625 C 48.011719 16.472656 48.707031 16.140625 49.449219 15.910156 C 50.191406 15.683594 50.953125 15.570312 51.730469 15.570312 L 56.75 15.570312 C 57.527344 15.570312 58.289062 15.683594 59.03125 15.910156 C 59.773438 16.140625 60.464844 16.472656 61.109375 16.90625 C 61.753906 17.34375 62.320312 17.863281 62.804688 18.46875 C 63.292969 19.078125 63.679688 19.742188 63.96875 20.460938 L 65.902344 25.300781 L 71.152344 37.566406 C 71.214844 37.71875 71.242188 37.875 71.226562 38.039062 C 71.210938 38.199219 71.160156 38.351562 71.070312 38.488281 C 70.980469 38.625 70.863281 38.730469 70.71875 38.808594 C 70.574219 38.886719 70.421875 38.925781 70.257812 38.925781 L 68.464844 38.925781 C 68.085938 38.925781 67.714844 38.871094 67.347656 38.761719 C 66.984375 38.652344 66.644531 38.492188 66.328125 38.28125 C 66.007812 38.070312 65.726562 37.820312 65.484375 37.527344 C 65.238281 37.238281 65.042969 36.914062 64.894531 36.566406 L 60.652344 26.652344 C 60.5625 26.445312 60.25 26.53125 60.277344 26.757812 L 62.015625 38.925781 L 63.871094 61.226562 C 63.882812 61.363281 63.867188 61.492188 63.820312 61.621094 C 63.777344 61.75 63.710938 61.863281 63.617188 61.964844 C 63.527344 62.066406 63.417969 62.140625 63.292969 62.195312 C 63.167969 62.25 63.039062 62.277344 62.902344 62.277344 L 61.421875 62.277344 C 60.960938 62.277344 60.515625 62.199219 60.082031 62.042969 C 59.648438 61.882812 59.257812 61.65625 58.90625 61.355469 C 58.554688 61.058594 58.265625 60.710938 58.039062 60.308594 C 57.8125 59.910156 57.660156 59.480469 57.585938 59.027344 L 54.433594 40.078125 C 54.398438 39.859375 54.085938 39.859375 54.050781 40.078125 L 50.898438 59.027344 C 50.820312 59.480469 50.667969 59.910156 50.441406 60.308594 C 50.214844 60.710938 49.925781 61.058594 49.574219 61.359375 C 49.222656 61.65625 48.832031 61.882812 48.398438 62.042969 C 47.96875 62.199219 47.519531 62.277344 47.058594 62.277344 L 45.578125 62.277344 C 45.441406 62.277344 45.3125 62.25 45.1875 62.195312 C 45.0625 62.140625 44.953125 62.066406 44.863281 61.964844 C 44.769531 61.863281 44.703125 61.75 44.660156 61.621094 C 44.613281 61.492188 44.597656 61.363281 44.609375 61.226562 L 46.464844 38.925781 Z M 90.976562 0 C 90.59375 0 90.214844 0.0390625 89.835938 0.113281 C 89.460938 0.1875 89.097656 0.296875 88.742188 0.445312 C 88.390625 0.589844 88.054688 0.769531 87.734375 0.984375 C 87.417969 1.195312 87.121094 1.4375 86.851562 1.710938 C 86.582031 1.980469 86.339844 2.277344 86.125 2.59375 C 85.914062 2.914062 85.734375 3.25 85.589844 3.605469 C 85.441406 3.957031 85.332031 4.324219 85.257812 4.699219 C 85.179688 5.074219 85.144531 5.457031 85.144531 5.839844 L 85.144531 7.785156 C 85.144531 8.167969 85.179688 8.546875 85.257812 8.925781 C 85.332031 9.300781 85.441406 9.664062 85.589844 10.019531 C 85.734375 10.375 85.914062 10.710938 86.125 11.027344 C 86.339844 11.347656 86.582031 11.640625 86.851562 11.914062 C 87.121094 12.183594 87.417969 12.425781 87.734375 12.640625 C 88.054688 12.851562 88.390625 13.03125 88.742188 13.179688 C 89.097656 13.324219 89.460938 13.4375 89.835938 13.511719 C 90.214844 13.585938 90.59375 13.625 90.976562 13.625 C 91.359375 13.625 91.738281 13.585938 92.113281 13.511719 C 92.488281 13.4375 92.851562 13.324219 93.207031 13.179688 C 93.558594 13.03125 93.894531 12.851562 94.214844 12.640625 C 94.53125 12.425781 94.828125 12.183594 95.097656 11.914062 C 95.367188 11.640625 95.609375 11.347656 95.824219 11.027344 C 96.035156 10.710938 96.214844 10.375 96.363281 10.019531 C 96.507812 9.664062 96.621094 9.300781 96.695312 8.925781 C 96.769531 8.546875 96.804688 8.167969 96.804688 7.785156 L 96.804688 5.839844 C 96.804688 5.457031 96.769531 5.074219 96.695312 4.699219 C 96.621094 4.324219 96.507812 3.957031 96.363281 3.605469 C 96.214844 3.25 96.035156 2.914062 95.824219 2.59375 C 95.609375 2.277344 95.367188 1.980469 95.097656 1.710938 C 94.828125 1.4375 94.53125 1.195312 94.214844 0.984375 C 93.894531 0.769531 93.558594 0.589844 93.207031 0.445312 C 92.851562 0.296875 92.488281 0.1875 92.113281 0.113281 C 91.738281 0.0390625 91.359375 0 90.976562 0 Z M 84.9375 26.757812 C 84.96875 26.53125 84.65625 26.445312 84.566406 26.652344 L 80.324219 36.566406 C 80.175781 36.914062 79.976562 37.238281 79.734375 37.53125 C 79.488281 37.820312 79.207031 38.074219 78.890625 38.28125 C 78.570312 38.492188 78.230469 38.652344 77.867188 38.761719 C 77.5 38.871094 77.128906 38.925781 76.746094 38.925781 L 74.957031 38.925781 C 74.792969 38.925781 74.636719 38.886719 74.496094 38.808594 C 74.351562 38.730469 74.234375 38.625 74.144531 38.488281 C 74.054688 38.351562 74 38.199219 73.988281 38.039062 C 73.972656 37.875 73.996094 37.71875 74.0625 37.566406 L 79.3125 25.300781 L 81.246094 20.460938 C 81.535156 19.742188 81.921875 19.078125 82.410156 18.472656 C 82.894531 17.863281 83.460938 17.34375 84.105469 16.90625 C 84.75 16.472656 85.441406 16.140625 86.183594 15.910156 C 86.925781 15.683594 87.6875 15.570312 88.464844 15.570312 L 93.488281 15.570312 C 94.261719 15.570312 95.023438 15.683594 95.765625 15.910156 C 96.507812 16.140625 97.203125 16.472656 97.84375 16.90625 C 98.488281 17.34375 99.054688 17.863281 99.542969 18.46875 C 100.027344 19.078125 100.417969 19.742188 100.703125 20.460938 L 102.636719 25.300781 L 107.886719 37.566406 C 107.953125 37.71875 107.976562 37.875 107.960938 38.039062 C 107.945312 38.199219 107.894531 38.351562 107.804688 38.488281 C 107.714844 38.625 107.597656 38.730469 107.453125 38.808594 C 107.308594 38.886719 107.15625 38.925781 106.992188 38.925781 L 105.199219 38.925781 C 104.820312 38.925781 104.449219 38.871094 104.082031 38.761719 C 103.71875 38.652344 103.378906 38.492188 103.0625 38.28125 C 102.742188 38.070312 102.464844 37.820312 102.21875 37.527344 C 101.976562 37.238281 101.777344 36.914062 101.628906 36.566406 L 97.386719 26.652344 C 97.296875 26.445312 96.984375 26.53125 97.015625 26.757812 L 98.75 38.925781 L 100.605469 61.226562 C 100.617188 61.363281 100.601562 61.492188 100.554688 61.621094 C 100.511719 61.75 100.445312 61.863281 100.351562 61.964844 C 100.261719 62.066406 100.152344 62.140625 100.027344 62.195312 C 99.902344 62.25 99.773438 62.277344 99.636719 62.277344 L 98.15625 62.277344 C 97.695312 62.277344 97.25 62.199219 96.816406 62.042969 C 96.386719 61.882812 95.992188 61.65625 95.640625 61.355469 C 95.292969 61.058594 95 60.710938 94.773438 60.308594 C 94.546875 59.910156 94.394531 59.480469 94.320312 59.027344 L 91.167969 40.078125 C 91.132812 39.859375 90.820312 39.859375 90.785156 40.078125 L 87.632812 59.027344 C 87.554688 59.480469 87.40625 59.910156 87.175781 60.308594 C 86.949219 60.710938 86.660156 61.058594 86.308594 61.359375 C 85.957031 61.65625 85.566406 61.882812 85.132812 62.042969 C 84.703125 62.199219 84.253906 62.277344 83.796875 62.277344 L 82.3125 62.277344 C 82.175781 62.277344 82.046875 62.25 81.921875 62.195312 C 81.796875 62.140625 81.691406 62.066406 81.597656 61.964844 C 81.507812 61.863281 81.4375 61.75 81.394531 61.621094 C 81.351562 61.492188 81.332031 61.363281 81.34375 61.226562 L 83.199219 38.925781 Z M 127.710938 0 C 127.328125 0 126.949219 0.0390625 126.574219 0.113281 C 126.195312 0.1875 125.832031 0.296875 125.480469 0.445312 C 125.125 0.589844 124.789062 0.769531 124.46875 0.984375 C 124.152344 1.195312 123.859375 1.4375 123.585938 1.710938 C 123.316406 1.980469 123.074219 2.277344 122.863281 2.59375 C 122.648438 2.914062 122.46875 3.25 122.324219 3.605469 C 122.175781 3.957031 122.066406 4.324219 121.992188 4.699219 C 121.917969 5.074219 121.878906 5.457031 121.878906 5.839844 L 121.878906 7.785156 C 121.878906 8.167969 121.917969 8.546875 121.992188 8.921875 C 122.066406 9.296875 122.179688 9.664062 122.324219 10.015625 C 122.472656 10.371094 122.652344 10.707031 122.863281 11.023438 C 123.078125 11.34375 123.320312 11.636719 123.589844 11.910156 C 123.859375 12.179688 124.15625 12.421875 124.472656 12.632812 C 124.792969 12.847656 125.128906 13.027344 125.480469 13.171875 C 125.835938 13.320312 126.199219 13.429688 126.574219 13.503906 C 126.949219 13.578125 127.328125 13.617188 127.710938 13.617188 C 128.09375 13.617188 128.472656 13.578125 128.847656 13.503906 C 129.222656 13.429688 129.585938 13.320312 129.941406 13.171875 C 130.292969 13.027344 130.628906 12.847656 130.945312 12.632812 C 131.265625 12.421875 131.558594 12.179688 131.832031 11.910156 C 132.101562 11.636719 132.34375 11.34375 132.554688 11.023438 C 132.769531 10.707031 132.949219 10.371094 133.09375 10.015625 C 133.242188 9.664062 133.351562 9.296875 133.425781 8.921875 C 133.503906 8.546875 133.539062 8.167969 133.542969 7.785156 L 133.542969 5.839844 C 133.542969 5.457031 133.503906 5.074219 133.429688 4.699219 C 133.355469 4.324219 133.242188 3.957031 133.097656 3.605469 C 132.949219 3.25 132.769531 2.914062 132.558594 2.59375 C 132.34375 2.277344 132.105469 1.980469 131.832031 1.710938 C 131.5625 1.4375 131.269531 1.195312 130.949219 0.984375 C 130.632812 0.769531 130.296875 0.589844 129.941406 0.445312 C 129.585938 0.296875 129.222656 0.1875 128.847656 0.113281 C 128.472656 0.0390625 128.09375 0 127.710938 0 Z M 121.671875 26.757812 C 121.703125 26.53125 121.390625 26.445312 121.300781 26.652344 L 117.058594 36.566406 C 116.910156 36.914062 116.710938 37.238281 116.46875 37.53125 C 116.222656 37.820312 115.941406 38.074219 115.625 38.28125 C 115.304688 38.492188 114.964844 38.652344 114.601562 38.761719 C 114.234375 38.871094 113.863281 38.925781 113.484375 38.925781 L 111.691406 38.925781 C 111.527344 38.925781 111.375 38.886719 111.230469 38.808594 C 111.085938 38.730469 110.96875 38.625 110.878906 38.488281 C 110.789062 38.351562 110.734375 38.199219 110.722656 38.039062 C 110.707031 37.875 110.730469 37.71875 110.796875 37.566406 L 116.046875 25.300781 L 117.980469 20.460938 C 118.269531 19.742188 118.65625 19.078125 119.144531 18.472656 C 119.632812 17.863281 120.195312 17.34375 120.839844 16.90625 C 121.484375 16.472656 122.175781 16.140625 122.917969 15.910156 C 123.660156 15.683594 124.421875 15.570312 125.199219 15.570312 L 130.222656 15.570312 C 131 15.570312 131.757812 15.683594 132.5 15.910156 C 133.242188 16.140625 133.9375 16.472656 134.578125 16.90625 C 135.222656 17.34375 135.789062 17.863281 136.277344 18.46875 C 136.761719 19.078125 137.152344 19.742188 137.441406 20.460938 L 139.371094 25.300781 L 144.621094 37.566406 C 144.6875 37.71875 144.710938 37.875 144.695312 38.039062 C 144.683594 38.199219 144.628906 38.351562 144.539062 38.488281 C 144.449219 38.625 144.332031 38.730469 144.1875 38.808594 C 144.042969 38.886719 143.890625 38.925781 143.726562 38.925781 L 141.9375 38.925781 C 141.554688 38.925781 141.183594 38.871094 140.820312 38.761719 C 140.453125 38.652344 140.113281 38.492188 139.796875 38.28125 C 139.480469 38.070312 139.199219 37.820312 138.953125 37.527344 C 138.710938 37.238281 138.511719 36.914062 138.363281 36.566406 L 134.121094 26.652344 C 134.03125 26.445312 133.71875 26.53125 133.75 26.757812 L 135.484375 38.925781 L 137.339844 61.226562 C 137.351562 61.363281 137.335938 61.492188 137.292969 61.621094 C 137.246094 61.75 137.179688 61.863281 137.085938 61.964844 C 136.996094 62.066406 136.886719 62.140625 136.761719 62.195312 C 136.640625 62.25 136.507812 62.277344 136.371094 62.277344 L 134.890625 62.277344 C 134.429688 62.277344 133.984375 62.199219 133.550781 62.042969 C 133.121094 61.882812 132.726562 61.65625 132.378906 61.355469 C 132.027344 61.058594 131.738281 60.710938 131.507812 60.308594 C 131.28125 59.910156 131.128906 59.480469 131.054688 59.027344 L 127.90625 40.078125 C 127.867188 39.859375 127.554688 39.859375 127.519531 40.078125 L 124.367188 59.027344 C 124.292969 59.480469 124.140625 59.910156 123.914062 60.308594 C 123.683594 60.710938 123.394531 61.058594 123.042969 61.359375 C 122.691406 61.65625 122.300781 61.882812 121.867188 62.042969 C 121.4375 62.199219 120.992188 62.277344 120.53125 62.277344 L 119.046875 62.277344 C 118.910156 62.277344 118.78125 62.25 118.65625 62.195312 C 118.53125 62.140625 118.425781 62.066406 118.332031 61.964844 C 118.242188 61.863281 118.171875 61.75 118.128906 61.621094 C 118.085938 61.492188 118.066406 61.363281 118.078125 61.226562 L 119.933594 38.925781 Z M 121.671875 26.757812 "/>
<path style=" stroke:none;fill-rule:nonzero;fill:rgb(18.429565%,28.62854%,48.239136%);fill-opacity:1;" d="M 164.445312 0 C 164.0625 0 163.683594 0.0390625 163.308594 0.113281 C 162.933594 0.1875 162.566406 0.296875 162.214844 0.445312 C 161.859375 0.589844 161.523438 0.769531 161.207031 0.984375 C 160.886719 1.195312 160.59375 1.4375 160.320312 1.710938 C 160.050781 1.980469 159.808594 2.277344 159.597656 2.59375 C 159.382812 2.914062 159.203125 3.25 159.058594 3.605469 C 158.910156 3.957031 158.800781 4.324219 158.726562 4.699219 C 158.652344 5.074219 158.613281 5.457031 158.613281 5.839844 L 158.613281 7.785156 C 158.613281 8.167969 158.652344 8.546875 158.726562 8.925781 C 158.800781 9.300781 158.910156 9.664062 159.058594 10.019531 C 159.203125 10.375 159.382812 10.710938 159.597656 11.027344 C 159.808594 11.347656 160.050781 11.640625 160.320312 11.914062 C 160.59375 12.183594 160.886719 12.425781 161.207031 12.640625 C 161.523438 12.851562 161.859375 13.03125 162.214844 13.179688 C 162.566406 13.324219 162.933594 13.4375 163.308594 13.511719 C 163.683594 13.585938 164.0625 13.625 164.445312 13.625 C 164.828125 13.625 165.207031 13.585938 165.582031 13.511719 C 165.957031 13.4375 166.324219 13.324219 166.675781 13.179688 C 167.03125 13.03125 167.367188 12.851562 167.683594 12.640625 C 168.003906 12.425781 168.296875 12.183594 168.566406 11.914062 C 168.839844 11.640625 169.082031 11.347656 169.292969 11.027344 C 169.507812 10.710938 169.6875 10.375 169.832031 10.019531 C 169.980469 9.664062 170.089844 9.300781 170.164062 8.925781 C 170.238281 8.546875 170.277344 8.167969 170.277344 7.785156 L 170.277344 5.839844 C 170.277344 5.457031 170.238281 5.074219 170.164062 4.699219 C 170.089844 4.324219 169.980469 3.957031 169.832031 3.605469 C 169.6875 3.25 169.507812 2.914062 169.292969 2.59375 C 169.082031 2.277344 168.839844 1.980469 168.566406 1.710938 C 168.296875 1.4375 168.003906 1.195312 167.683594 0.984375 C 167.367188 0.769531 167.03125 0.589844 166.675781 0.445312 C 166.324219 0.296875 165.957031 0.1875 165.582031 0.113281 C 165.207031 0.0390625 164.828125 0 164.445312 0 Z M 158.40625 26.757812 C 158.4375 26.53125 158.125 26.445312 158.035156 26.652344 L 153.792969 36.566406 C 153.644531 36.914062 153.445312 37.238281 153.203125 37.53125 C 152.957031 37.820312 152.675781 38.074219 152.359375 38.28125 C 152.042969 38.492188 151.699219 38.652344 151.335938 38.761719 C 150.972656 38.871094 150.597656 38.925781 150.21875 38.925781 L 148.425781 38.925781 C 148.261719 38.925781 148.109375 38.886719 147.964844 38.808594 C 147.820312 38.730469 147.703125 38.625 147.613281 38.488281 C 147.523438 38.351562 147.472656 38.199219 147.457031 38.039062 C 147.441406 37.875 147.46875 37.71875 147.53125 37.566406 L 152.78125 25.300781 L 154.714844 20.460938 C 155.003906 19.742188 155.390625 19.078125 155.878906 18.472656 C 156.367188 17.863281 156.933594 17.34375 157.574219 16.90625 C 158.21875 16.472656 158.910156 16.140625 159.652344 15.910156 C 160.398438 15.683594 161.15625 15.570312 161.933594 15.570312 L 166.957031 15.570312 C 167.734375 15.570312 168.492188 15.683594 169.234375 15.910156 C 169.976562 16.140625 170.671875 16.472656 171.316406 16.90625 C 171.957031 17.34375 172.523438 17.863281 173.011719 18.46875 C 173.5 19.078125 173.886719 19.742188 174.175781 20.460938 L 176.105469 25.300781 L 181.355469 37.566406 C 181.421875 37.71875 181.445312 37.875 181.429688 38.039062 C 181.417969 38.199219 181.363281 38.351562 181.273438 38.488281 C 181.183594 38.625 181.066406 38.730469 180.921875 38.808594 C 180.78125 38.886719 180.625 38.925781 180.460938 38.925781 L 178.671875 38.925781 C 178.289062 38.925781 177.917969 38.871094 177.554688 38.761719 C 177.1875 38.652344 176.847656 38.492188 176.53125 38.28125 C 176.214844 38.070312 175.933594 37.820312 175.6875 37.527344 C 175.445312 37.238281 175.246094 36.914062 175.097656 36.566406 L 170.855469 26.652344 C 170.765625 26.445312 170.453125 26.53125 170.484375 26.757812 L 172.21875 38.925781 L 174.074219 61.226562 C 174.085938 61.363281 174.070312 61.492188 174.027344 61.621094 C 173.980469 61.75 173.914062 61.863281 173.820312 61.964844 C 173.730469 62.066406 173.621094 62.140625 173.496094 62.195312 C 173.375 62.25 173.242188 62.277344 173.109375 62.277344 L 171.625 62.277344 C 171.164062 62.277344 170.71875 62.199219 170.285156 62.042969 C 169.855469 61.882812 169.464844 61.65625 169.113281 61.355469 C 168.761719 61.058594 168.472656 60.710938 168.246094 60.308594 C 168.015625 59.910156 167.867188 59.480469 167.789062 59.027344 L 164.640625 40.078125 C 164.601562 39.859375 164.292969 39.859375 164.253906 40.078125 L 161.101562 59.027344 C 161.027344 59.480469 160.875 59.910156 160.648438 60.308594 C 160.417969 60.710938 160.128906 61.058594 159.777344 61.359375 C 159.429688 61.65625 159.035156 61.882812 158.605469 62.042969 C 158.171875 62.199219 157.726562 62.277344 157.265625 62.277344 L 155.78125 62.277344 C 155.644531 62.277344 155.515625 62.25 155.390625 62.195312 C 155.269531 62.140625 155.160156 62.066406 155.066406 61.964844 C 154.976562 61.863281 154.90625 61.75 154.863281 61.621094 C 154.820312 61.492188 154.804688 61.363281 154.8125 61.226562 L 156.671875 38.925781 Z M 201.179688 0 C 200.796875 0 200.417969 0.0390625 200.042969 0.113281 C 199.667969 0.1875 199.300781 0.296875 198.949219 0.445312 C 198.59375 0.589844 198.257812 0.769531 197.941406 0.984375 C 197.621094 1.195312 197.328125 1.4375 197.058594 1.710938 C 196.785156 1.980469 196.542969 2.277344 196.332031 2.59375 C 196.117188 2.914062 195.9375 3.25 195.792969 3.605469 C 195.644531 3.957031 195.535156 4.324219 195.460938 4.699219 C 195.386719 5.074219 195.347656 5.457031 195.347656 5.839844 L 195.347656 7.785156 C 195.347656 8.167969 195.386719 8.546875 195.460938 8.925781 C 195.535156 9.300781 195.644531 9.664062 195.792969 10.019531 C 195.9375 10.375 196.117188 10.710938 196.332031 11.027344 C 196.542969 11.347656 196.785156 11.640625 197.058594 11.914062 C 197.328125 12.183594 197.621094 12.425781 197.941406 12.640625 C 198.257812 12.851562 198.59375 13.03125 198.949219 13.179688 C 199.300781 13.324219 199.667969 13.4375 200.042969 13.511719 C 200.417969 13.585938 200.796875 13.625 201.179688 13.625 C 201.5625 13.625 201.941406 13.585938 202.316406 13.511719 C 202.691406 13.4375 203.058594 13.324219 203.410156 13.179688 C 203.765625 13.03125 204.101562 12.851562 204.417969 12.640625 C 204.738281 12.425781 205.03125 12.183594 205.304688 11.914062 C 205.574219 11.640625 205.816406 11.347656 206.027344 11.027344 C 206.242188 10.710938 206.421875 10.375 206.566406 10.019531 C 206.714844 9.664062 206.824219 9.300781 206.898438 8.925781 C 206.972656 8.546875 207.011719 8.167969 207.011719 7.785156 L 207.011719 5.839844 C 207.011719 5.457031 206.972656 5.074219 206.898438 4.699219 C 206.824219 4.324219 206.714844 3.957031 206.566406 3.605469 C 206.421875 3.25 206.242188 2.914062 206.027344 2.59375 C 205.816406 2.277344 205.574219 1.980469 205.304688 1.710938 C 205.03125 1.4375 204.738281 1.195312 204.417969 0.984375 C 204.101562 0.769531 203.765625 0.589844 203.410156 0.445312 C 203.058594 0.296875 202.691406 0.1875 202.316406 0.113281 C 201.941406 0.0390625 201.5625 0 201.179688 0 Z M 195.140625 26.757812 C 195.175781 26.53125 194.859375 26.445312 194.773438 26.652344 L 190.527344 36.566406 C 190.378906 36.914062 190.183594 37.238281 189.9375 37.53125 C 189.691406 37.820312 189.414062 38.074219 189.09375 38.28125 C 188.777344 38.492188 188.433594 38.652344 188.070312 38.761719 C 187.707031 38.871094 187.332031 38.925781 186.953125 38.925781 L 185.160156 38.925781 C 184.996094 38.925781 184.84375 38.886719 184.699219 38.808594 C 184.554688 38.730469 184.4375 38.625 184.347656 38.488281 C 184.257812 38.351562 184.207031 38.199219 184.191406 38.039062 C 184.175781 37.875 184.203125 37.71875 184.265625 37.566406 L 189.519531 25.300781 L 191.449219 20.460938 C 191.738281 19.742188 192.125 19.078125 192.613281 18.472656 C 193.101562 17.863281 193.667969 17.34375 194.308594 16.90625 C 194.953125 16.472656 195.644531 16.140625 196.390625 15.910156 C 197.132812 15.683594 197.890625 15.570312 198.667969 15.570312 L 203.691406 15.570312 C 204.46875 15.570312 205.226562 15.683594 205.96875 15.910156 C 206.714844 16.140625 207.40625 16.472656 208.050781 16.90625 C 208.691406 17.34375 209.257812 17.863281 209.746094 18.46875 C 210.234375 19.078125 210.621094 19.742188 210.910156 20.460938 L 212.84375 25.300781 L 218.089844 37.566406 C 218.15625 37.71875 218.179688 37.875 218.167969 38.039062 C 218.152344 38.199219 218.097656 38.351562 218.007812 38.488281 C 217.917969 38.625 217.800781 38.730469 217.660156 38.808594 C 217.515625 38.886719 217.359375 38.925781 217.199219 38.925781 L 215.40625 38.925781 C 215.023438 38.925781 214.652344 38.871094 214.289062 38.761719 C 213.925781 38.652344 213.582031 38.492188 213.265625 38.28125 C 212.949219 38.070312 212.667969 37.820312 212.421875 37.527344 C 212.179688 37.238281 211.984375 36.914062 211.832031 36.566406 L 207.589844 26.652344 C 207.5 26.445312 207.1875 26.53125 207.21875 26.757812 L 208.953125 38.925781 L 210.8125 61.226562 C 210.820312 61.363281 210.804688 61.492188 210.761719 61.621094 C 210.71875 61.75 210.648438 61.863281 210.558594 61.964844 C 210.464844 62.066406 210.355469 62.140625 210.234375 62.195312 C 210.109375 62.25 209.980469 62.277344 209.84375 62.277344 L 208.359375 62.277344 C 207.898438 62.277344 207.453125 62.199219 207.023438 62.042969 C 206.589844 61.882812 206.199219 61.65625 205.847656 61.355469 C 205.496094 61.058594 205.207031 60.710938 204.980469 60.308594 C 204.753906 59.910156 204.601562 59.480469 204.523438 59.027344 L 201.375 40.078125 C 201.335938 39.859375 201.027344 39.859375 200.988281 40.078125 L 197.835938 59.027344 C 197.761719 59.480469 197.609375 59.910156 197.382812 60.308594 C 197.15625 60.710938 196.867188 61.058594 196.515625 61.359375 C 196.164062 61.65625 195.769531 61.882812 195.339844 62.042969 C 194.90625 62.199219 194.460938 62.277344 194 62.277344 L 192.515625 62.277344 C 192.382812 62.277344 192.25 62.25 192.128906 62.195312 C 192.003906 62.140625 191.894531 62.066406 191.800781 61.964844 C 191.710938 61.863281 191.644531 61.75 191.597656 61.621094 C 191.554688 61.492188 191.539062 61.363281 191.550781 61.226562 L 193.40625 38.925781 Z M 195.140625 26.757812 "/>
</g>
</svg>
