<?xml version="1.0" encoding="UTF-8"?>
<svg xmlns="http://www.w3.org/2000/svg" xmlns:xlink="http://www.w3.org/1999/xlink" width="230px" height="50px" viewBox="0 0 230 50" version="1.2">
<g id="surface1">
<path style=" stroke:none;fill-rule:nonzero;fill:rgb(31.759644%,33.329773%,56.079102%);fill-opacity:1;" d="M 2.59375 18.25 C 0.875 17.539062 0.875 15.082031 2.59375 14.371094 L 32.511719 1.953125 C 33.039062 1.734375 33.570312 1.734375 34.097656 1.953125 L 64.015625 14.371094 C 65.734375 15.082031 65.734375 17.539062 64.015625 18.25 L 59.0625 20.308594 L 59.0625 26.910156 C 59.386719 27.097656 59.640625 27.355469 59.824219 27.679688 C 60.011719 28.003906 60.105469 28.355469 60.105469 28.730469 C 60.105469 29.105469 60.011719 29.453125 59.824219 29.777344 C 59.640625 30.105469 59.386719 30.359375 59.0625 30.546875 L 59.0625 30.828125 L 60.390625 33.503906 C 60.472656 33.667969 60.507812 33.839844 60.5 34.023438 C 60.492188 34.203125 60.441406 34.371094 60.34375 34.527344 C 60.25 34.679688 60.125 34.804688 59.96875 34.890625 C 59.808594 34.980469 59.640625 35.023438 59.460938 35.023438 L 56.582031 35.023438 C 56.402344 35.023438 56.234375 34.980469 56.074219 34.894531 C 55.917969 34.804688 55.792969 34.683594 55.695312 34.527344 C 55.601562 34.371094 55.550781 34.203125 55.542969 34.023438 C 55.535156 33.839844 55.570312 33.667969 55.652344 33.503906 L 56.980469 30.828125 L 56.980469 30.546875 C 56.660156 30.359375 56.402344 30.105469 56.21875 29.777344 C 56.03125 29.453125 55.9375 29.105469 55.9375 28.730469 C 55.9375 28.355469 56.03125 28.003906 56.21875 27.679688 C 56.402344 27.355469 56.660156 27.097656 56.980469 26.910156 L 56.980469 21.171875 L 34.097656 30.667969 C 33.566406 30.886719 33.039062 30.886719 32.511719 30.667969 Z M 12.488281 24.628906 L 12.488281 39.390625 C 12.488281 41.710938 21.808594 43.585938 33.304688 43.585938 C 44.800781 43.585938 54.121094 41.710938 54.121094 39.390625 L 54.121094 24.628906 L 34.890625 32.609375 C 33.835938 33.046875 32.777344 33.046875 31.722656 32.609375 Z M 82.527344 18.25 C 80.804688 17.539062 80.804688 15.082031 82.527344 14.371094 L 112.445312 1.953125 C 112.972656 1.734375 113.5 1.734375 114.03125 1.953125 L 143.949219 14.371094 C 145.667969 15.082031 145.667969 17.539062 143.949219 18.25 L 138.996094 20.308594 L 138.996094 26.910156 C 139.316406 27.097656 139.570312 27.355469 139.757812 27.679688 C 139.945312 28.003906 140.035156 28.355469 140.035156 28.730469 C 140.035156 29.105469 139.945312 29.453125 139.757812 29.777344 C 139.570312 30.105469 139.316406 30.359375 138.996094 30.546875 L 138.996094 30.828125 L 140.324219 33.503906 C 140.402344 33.667969 140.441406 33.839844 140.433594 34.023438 C 140.421875 34.203125 140.371094 34.371094 140.277344 34.527344 C 140.183594 34.679688 140.054688 34.804688 139.898438 34.890625 C 139.742188 34.980469 139.574219 35.023438 139.390625 35.023438 L 136.515625 35.023438 C 136.335938 35.023438 136.164062 34.980469 136.007812 34.894531 C 135.851562 34.804688 135.722656 34.683594 135.628906 34.527344 C 135.53125 34.371094 135.480469 34.203125 135.472656 34.023438 C 135.464844 33.839844 135.5 33.667969 135.582031 33.503906 L 136.914062 30.828125 L 136.914062 30.546875 C 136.589844 30.359375 136.335938 30.105469 136.148438 29.777344 C 135.964844 29.453125 135.871094 29.105469 135.871094 28.730469 C 135.871094 28.355469 135.964844 28.003906 136.148438 27.679688 C 136.335938 27.355469 136.589844 27.097656 136.914062 26.910156 L 136.914062 21.171875 L 114.027344 30.667969 C 113.5 30.886719 112.96875 30.886719 112.441406 30.667969 Z M 92.421875 24.628906 L 92.421875 39.390625 C 92.421875 41.710938 101.742188 43.585938 113.238281 43.585938 C 124.734375 43.585938 134.054688 41.710938 134.054688 39.390625 L 134.054688 24.628906 L 114.824219 32.609375 C 113.765625 33.046875 112.710938 33.046875 111.652344 32.609375 Z M 92.421875 24.628906 "/>
<path style=" stroke:none;fill-rule:nonzero;fill:rgb(42.349243%,89.7995%,90.979004%);fill-opacity:1;" d="M 162.457031 18.25 C 160.738281 17.539062 160.738281 15.082031 162.457031 14.371094 L 192.375 1.953125 C 192.90625 1.734375 193.433594 1.734375 193.960938 1.953125 L 223.878906 14.371094 C 225.601562 15.082031 225.601562 17.539062 223.878906 18.25 L 218.925781 20.308594 L 218.925781 26.910156 C 219.25 27.097656 219.503906 27.355469 219.691406 27.679688 C 219.875 28.003906 219.96875 28.355469 219.96875 28.730469 C 219.96875 29.105469 219.875 29.453125 219.691406 29.777344 C 219.503906 30.105469 219.25 30.359375 218.925781 30.546875 L 218.925781 30.828125 L 220.253906 33.503906 C 220.335938 33.667969 220.371094 33.839844 220.363281 34.023438 C 220.355469 34.203125 220.304688 34.371094 220.210938 34.527344 C 220.113281 34.679688 219.988281 34.804688 219.832031 34.890625 C 219.671875 34.980469 219.503906 35.023438 219.324219 35.023438 L 216.449219 35.023438 C 216.265625 35.023438 216.097656 34.980469 215.941406 34.894531 C 215.78125 34.804688 215.65625 34.683594 215.558594 34.527344 C 215.464844 34.371094 215.414062 34.203125 215.40625 34.023438 C 215.398438 33.839844 215.433594 33.667969 215.515625 33.503906 L 216.84375 30.828125 L 216.84375 30.546875 C 216.523438 30.359375 216.269531 30.105469 216.082031 29.777344 C 215.894531 29.453125 215.800781 29.105469 215.800781 28.730469 C 215.800781 28.355469 215.894531 28.003906 216.082031 27.679688 C 216.269531 27.355469 216.523438 27.097656 216.84375 26.910156 L 216.84375 21.171875 L 193.960938 30.667969 C 193.429688 30.886719 192.902344 30.886719 192.375 30.667969 Z M 172.355469 24.628906 L 172.355469 39.390625 C 172.355469 41.710938 181.671875 43.585938 193.167969 43.585938 C 204.664062 43.585938 213.984375 41.710938 213.984375 39.390625 L 213.984375 24.628906 L 194.753906 32.609375 C 193.699219 33.046875 192.640625 33.046875 191.585938 32.609375 Z M 172.355469 24.628906 "/>
</g>
</svg>
