<?xml version="1.0" encoding="UTF-8"?>
<svg xmlns="http://www.w3.org/2000/svg" xmlns:xlink="http://www.w3.org/1999/xlink" width="95px" height="95px" viewBox="28 20 95 95" version="1.2">
<defs>
<clipPath id="clip1">
  <path d="M 28.933594 20.285156 L 121.183594 20.285156 L 121.183594 112.535156 L 28.933594 112.535156 Z M 28.933594 20.285156 "/>
</clipPath>
<clipPath id="clip2">
  <path d="M 35 60 L 116 60 L 116 112.535156 L 35 112.535156 Z M 35 60 "/>
</clipPath>
<clipPath id="clip3">
  <path d="M 58 109 L 92 109 L 92 112.535156 L 58 112.535156 Z M 58 109 "/>
</clipPath>
</defs>
<g id="surface1">
<g clip-path="url(#clip1)" clip-rule="nonzero">
<path style=" stroke:none;fill-rule:nonzero;fill:rgb(92.549133%,21.958923%,23.139954%);fill-opacity:1;" d="M 121.28125 66.550781 C 121.28125 92.097656 100.621094 112.8125 75.136719 112.8125 C 49.652344 112.8125 28.992188 92.097656 28.992188 66.550781 C 28.992188 41 49.652344 20.289062 75.136719 20.289062 C 100.621094 20.289062 121.28125 41 121.28125 66.550781 "/>
</g>
<path style=" stroke:none;fill-rule:nonzero;fill:rgb(14.509583%,18.03894%,31.759644%);fill-opacity:1;" d="M 89.730469 36.324219 C 89.785156 36.519531 89.835938 36.710938 89.882812 36.902344 C 89.835938 36.710938 89.785156 36.519531 89.730469 36.324219 "/>
<path style=" stroke:none;fill-rule:nonzero;fill:rgb(14.509583%,18.03894%,31.759644%);fill-opacity:1;" d="M 74.371094 22.15625 C 74.496094 22.136719 74.625 22.121094 74.75 22.117188 C 74.625 22.121094 74.496094 22.136719 74.371094 22.15625 "/>
<path style=" stroke:none;fill-rule:nonzero;fill:rgb(14.509583%,18.03894%,31.759644%);fill-opacity:1;" d="M 59.816406 60.324219 C 59.488281 59.996094 59.078125 59.566406 58.652344 59.058594 C 59.078125 59.566406 59.488281 59.996094 59.816406 60.324219 "/>
<path style=" stroke:none;fill-rule:nonzero;fill:rgb(14.509583%,18.03894%,31.759644%);fill-opacity:1;" d="M 88.925781 33.863281 C 88.984375 34.003906 89.03125 34.144531 89.085938 34.285156 C 89.03125 34.144531 88.984375 34.003906 88.925781 33.863281 "/>
<path style=" stroke:none;fill-rule:nonzero;fill:rgb(14.509583%,18.03894%,31.759644%);fill-opacity:1;" d="M 89.371094 35.085938 C 89.425781 35.253906 89.476562 35.421875 89.523438 35.589844 C 89.476562 35.421875 89.425781 35.253906 89.371094 35.085938 "/>
<path style=" stroke:none;fill-rule:nonzero;fill:rgb(14.509583%,18.03894%,31.759644%);fill-opacity:1;" d="M 71.101562 24.4375 C 71.160156 24.390625 71.214844 24.347656 71.273438 24.300781 C 71.214844 24.347656 71.160156 24.390625 71.101562 24.4375 "/>
<path style=" stroke:none;fill-rule:nonzero;fill:rgb(14.509583%,18.03894%,31.759644%);fill-opacity:1;" d="M 73.855469 22.28125 C 73.976562 22.238281 74.101562 22.199219 74.222656 22.171875 C 74.101562 22.199219 73.976562 22.238281 73.855469 22.28125 "/>
<path style=" stroke:none;fill-rule:nonzero;fill:rgb(14.509583%,18.03894%,31.759644%);fill-opacity:1;" d="M 72.746094 22.992188 C 72.898438 22.839844 73.054688 22.710938 73.214844 22.601562 C 73.054688 22.710938 72.898438 22.839844 72.746094 22.992188 "/>
<path style=" stroke:none;fill-rule:nonzero;fill:rgb(14.509583%,18.03894%,31.759644%);fill-opacity:1;" d="M 71.929688 23.75 C 71.96875 23.714844 72.007812 23.679688 72.046875 23.644531 C 72.007812 23.679688 71.96875 23.714844 71.929688 23.75 "/>
<path style=" stroke:none;fill-rule:nonzero;fill:rgb(14.509583%,18.03894%,31.759644%);fill-opacity:1;" d="M 73.351562 22.523438 C 73.46875 22.453125 73.585938 22.382812 73.710938 22.332031 C 73.589844 22.382812 73.46875 22.453125 73.351562 22.523438 "/>
<path style=" stroke:none;fill-rule:nonzero;fill:rgb(14.509583%,18.03894%,31.759644%);fill-opacity:1;" d="M 87.453125 31.261719 C 87.527344 31.363281 87.597656 31.464844 87.667969 31.566406 C 87.597656 31.464844 87.527344 31.363281 87.453125 31.261719 "/>
<path style=" stroke:none;fill-rule:nonzero;fill:rgb(14.509583%,18.03894%,31.759644%);fill-opacity:1;" d="M 92.273438 59.679688 C 92.179688 59.804688 92.089844 59.921875 92.003906 60.035156 C 92.089844 59.921875 92.179688 59.804688 92.273438 59.679688 "/>
<path style=" stroke:none;fill-rule:nonzero;fill:rgb(14.509583%,18.03894%,31.759644%);fill-opacity:1;" d="M 92.570312 59.273438 C 92.496094 59.378906 92.421875 59.476562 92.351562 59.574219 C 92.421875 59.476562 92.496094 59.378906 92.570312 59.273438 "/>
<path style=" stroke:none;fill-rule:nonzero;fill:rgb(14.509583%,18.03894%,31.759644%);fill-opacity:1;" d="M 61.082031 46.789062 C 65.449219 44.996094 71.539062 44.269531 75.429688 44.269531 C 80.574219 44.269531 85.875 44.269531 89.617188 46.042969 C 90.019531 46.234375 90.417969 46.441406 90.804688 46.667969 C 93.789062 48.429688 95.28125 51.988281 94.464844 55.359375 C 95 53.199219 95.050781 50.996094 94.292969 49.480469 C 93.460938 47.8125 93.601562 44.757812 91.824219 42.320312 C 90.796875 40.910156 90.410156 39.015625 89.914062 37.027344 C 88.191406 37.453125 86.222656 39.976562 84.003906 41.457031 C 81.199219 43.332031 84.628906 38.851562 86.054688 35.121094 C 86.78125 33.222656 86.453125 31.082031 85.957031 29.433594 C 84.074219 27.363281 81.847656 25.609375 80.5 24.832031 C 79.019531 23.96875 76.796875 22.097656 74.78125 22.117188 C 74.230469 22.527344 73.855469 23.59375 73.402344 24.800781 C 72.714844 26.632812 74.542969 27.910156 75.8125 29.25 C 77.078125 30.589844 72.257812 29.054688 71.414062 26.710938 C 70.859375 25.175781 70.136719 25.28125 69.707031 25.53125 C 68.371094 26.601562 67.070312 27.808594 65.882812 30.035156 C 65.722656 30.332031 65.578125 30.644531 65.425781 30.945312 C 65.558594 32.300781 65.890625 33.824219 66.617188 35.210938 C 68.515625 38.851562 69.328125 40.160156 70.585938 40.652344 C 71.84375 41.144531 71.851562 42.652344 69.300781 41.898438 C 66.75 41.144531 65.984375 37.152344 63.875 39.042969 C 62.457031 40.308594 61.578125 41.222656 60.757812 41.769531 C 60.691406 41.953125 60.617188 42.140625 60.554688 42.320312 C 59.167969 46.234375 56.839844 49.210938 56.285156 52.738281 C 56.742188 50.074219 58.570312 47.816406 61.082031 46.789062 "/>
<path style=" stroke:none;fill-rule:nonzero;fill:rgb(14.509583%,18.03894%,31.759644%);fill-opacity:1;" d="M 92.882812 58.816406 C 92.808594 58.925781 92.738281 59.035156 92.664062 59.140625 C 92.738281 59.035156 92.808594 58.925781 92.882812 58.816406 "/>
<g clip-path="url(#clip2)" clip-rule="nonzero">
<path style=" stroke:none;fill-rule:nonzero;fill:rgb(10.198975%,11.369324%,19.999695%);fill-opacity:1;" d="M 110.09375 79.078125 C 107.460938 73.9375 105.519531 68.101562 101.917969 66.699219 C 98.3125 65.296875 91.1875 61.015625 91.1875 61.015625 C 91.1875 61.015625 91.535156 60.636719 92 60.039062 C 91.738281 60.308594 91.46875 60.625 91.1875 61.015625 C 88.84375 64.265625 83.691406 66.570312 80.46875 69.101562 C 77.246094 71.632812 76.277344 77.191406 76.277344 77.191406 C 76.277344 77.191406 74.890625 75.890625 71.84375 69.761719 C 68.792969 63.628906 60.554688 61.015625 60.554688 61.015625 C 60.554688 61.015625 60.480469 60.949219 60.347656 60.832031 C 60.480469 60.949219 60.554688 61.015625 60.554688 61.015625 C 60.554688 61.015625 58.261719 61.847656 56.664062 62.957031 C 55.070312 64.070312 51.054688 66.015625 48.144531 67.265625 C 45.230469 68.515625 43.429688 73.378906 41.628906 77.191406 C 40.320312 79.957031 37.265625 85.617188 35.09375 89.527344 C 43.054688 103.4375 57.996094 112.8125 75.136719 112.8125 C 92.472656 112.8125 107.570312 103.222656 115.453125 89.050781 C 113.445312 85.0625 110.921875 80.691406 110.09375 79.078125 "/>
</g>
<path style=" stroke:none;fill-rule:nonzero;fill:rgb(14.509583%,18.03894%,31.759644%);fill-opacity:1;" d="M 93.550781 57.722656 C 93.464844 57.878906 93.378906 58.03125 93.289062 58.179688 C 93.378906 58.03125 93.464844 57.878906 93.550781 57.722656 "/>
<path style=" stroke:none;fill-rule:nonzero;fill:rgb(14.509583%,18.03894%,31.759644%);fill-opacity:1;" d="M 94.050781 56.683594 C 94.003906 56.800781 93.953125 56.921875 93.898438 57.039062 C 93.953125 56.921875 94.003906 56.800781 94.050781 56.683594 "/>
<path style=" stroke:none;fill-rule:nonzero;fill:rgb(14.509583%,18.03894%,31.759644%);fill-opacity:1;" d="M 93.8125 57.21875 C 93.757812 57.335938 93.695312 57.449219 93.636719 57.566406 C 93.695312 57.449219 93.757812 57.335938 93.8125 57.21875 "/>
<path style=" stroke:none;fill-rule:nonzero;fill:rgb(14.509583%,18.03894%,31.759644%);fill-opacity:1;" d="M 93.269531 58.210938 C 93.171875 58.371094 93.074219 58.53125 92.972656 58.683594 C 93.074219 58.53125 93.171875 58.371094 93.269531 58.210938 "/>
<path style=" stroke:none;fill-rule:nonzero;fill:rgb(14.509583%,18.03894%,31.759644%);fill-opacity:1;" d="M 94.292969 56.011719 C 94.246094 56.179688 94.183594 56.351562 94.117188 56.519531 C 94.183594 56.351562 94.246094 56.179688 94.292969 56.011719 "/>
<path style=" stroke:none;fill-rule:nonzero;fill:rgb(14.509583%,18.03894%,31.759644%);fill-opacity:1;" d="M 86.492188 30.03125 C 86.574219 30.128906 86.65625 30.226562 86.734375 30.324219 C 86.65625 30.226562 86.574219 30.128906 86.492188 30.03125 "/>
<path style=" stroke:none;fill-rule:nonzero;fill:rgb(14.509583%,18.03894%,31.759644%);fill-opacity:1;" d="M 57.804688 57.957031 C 57.53125 57.558594 57.265625 57.136719 57.035156 56.699219 C 57.265625 57.136719 57.53125 57.558594 57.804688 57.957031 "/>
<path style=" stroke:none;fill-rule:nonzero;fill:rgb(14.509583%,18.03894%,31.759644%);fill-opacity:1;" d="M 61.183594 40.625 C 61.378906 40.097656 61.570312 39.574219 61.777344 39.042969 C 61.570312 39.574219 61.378906 40.097656 61.183594 40.625 "/>
<path style=" stroke:none;fill-rule:nonzero;fill:rgb(14.509583%,18.03894%,31.759644%);fill-opacity:1;" d="M 69.710938 25.527344 C 69.976562 25.316406 70.246094 25.109375 70.515625 24.898438 C 70.246094 25.109375 69.976562 25.316406 69.710938 25.527344 "/>
<path style=" stroke:none;fill-rule:nonzero;fill:rgb(14.509583%,18.03894%,31.759644%);fill-opacity:1;" d="M 61.941406 38.644531 C 62.464844 37.328125 63.023438 36.019531 63.609375 34.714844 C 63.023438 36.019531 62.464844 37.328125 61.941406 38.644531 "/>
<path style=" stroke:none;fill-rule:nonzero;fill:rgb(14.509583%,18.03894%,31.759644%);fill-opacity:1;" d="M 58.652344 59.058594 C 58.371094 58.722656 58.082031 58.351562 57.804688 57.957031 C 58.082031 58.351562 58.371094 58.722656 58.652344 59.058594 "/>
<path style=" stroke:none;fill-rule:nonzero;fill:rgb(14.509583%,18.03894%,31.759644%);fill-opacity:1;" d="M 64.199219 33.417969 C 64.441406 32.902344 64.695312 32.394531 64.949219 31.886719 C 64.695312 32.394531 64.441406 32.898438 64.199219 33.417969 "/>
<path style=" stroke:none;fill-rule:nonzero;fill:rgb(18.818665%,23.139954%,39.99939%);fill-opacity:1;" d="M 71.84375 69.761719 C 74.890625 75.890625 76.277344 77.191406 76.277344 77.191406 C 74.996094 75.71875 73.539062 71.621094 71.53125 67.789062 C 69.527344 63.957031 63.675781 61.910156 61.03125 60.214844 C 57.292969 57.816406 54.277344 51.667969 60.929688 47.664062 C 67.582031 43.65625 85.023438 44.910156 88.960938 46.667969 C 93.863281 48.855469 95.230469 52.398438 93.023438 57.089844 C 90.816406 61.777344 84.628906 65.320312 80.339844 68.449219 C 76.054688 71.574219 76.277344 77.191406 76.277344 77.191406 C 76.277344 77.191406 77.246094 71.632812 80.46875 69.101562 C 83.691406 66.570312 88.84375 64.265625 91.1875 61.015625 C 91.46875 60.625 91.738281 60.308594 92 60.039062 C 92 60.035156 92.003906 60.035156 92.003906 60.035156 C 92.089844 59.921875 92.179688 59.804688 92.273438 59.679688 C 92.300781 59.644531 92.324219 59.609375 92.351562 59.574219 C 92.421875 59.476562 92.496094 59.378906 92.570312 59.273438 C 92.601562 59.230469 92.632812 59.1875 92.664062 59.140625 C 92.738281 59.035156 92.808594 58.925781 92.882812 58.816406 C 92.914062 58.773438 92.941406 58.730469 92.972656 58.683594 C 93.074219 58.53125 93.171875 58.371094 93.269531 58.210938 C 93.277344 58.199219 93.285156 58.191406 93.289062 58.179688 C 93.378906 58.03125 93.464844 57.878906 93.550781 57.722656 C 93.582031 57.671875 93.605469 57.621094 93.636719 57.566406 C 93.695312 57.449219 93.757812 57.335938 93.8125 57.21875 C 93.84375 57.15625 93.871094 57.097656 93.898438 57.039062 C 93.953125 56.921875 94.003906 56.800781 94.050781 56.683594 C 94.074219 56.628906 94.097656 56.574219 94.117188 56.519531 C 94.183594 56.351562 94.246094 56.179688 94.292969 56.011719 C 94.351562 55.816406 94.40625 55.621094 94.453125 55.421875 C 94.460938 55.402344 94.460938 55.378906 94.464844 55.359375 C 95.28125 51.988281 93.789062 48.429688 90.804688 46.667969 C 90.417969 46.441406 90.019531 46.234375 89.617188 46.042969 C 85.875 44.269531 80.574219 44.269531 75.429688 44.269531 C 71.539062 44.269531 65.449219 44.996094 61.082031 46.789062 C 58.570312 47.816406 56.742188 50.074219 56.285156 52.738281 C 56.261719 52.886719 56.222656 53.035156 56.207031 53.1875 C 56.203125 53.203125 56.203125 53.21875 56.199219 53.234375 C 56.074219 54.40625 56.453125 55.605469 57.035156 56.699219 C 57.265625 57.136719 57.53125 57.558594 57.804688 57.957031 C 58.082031 58.351562 58.371094 58.722656 58.652344 59.058594 C 59.078125 59.566406 59.488281 59.996094 59.816406 60.324219 C 60.257812 60.761719 60.554688 61.015625 60.554688 61.015625 C 60.554688 61.015625 68.792969 63.628906 71.84375 69.761719 "/>
<path style=" stroke:none;fill-rule:nonzero;fill:rgb(8.628845%,10.198975%,13.328552%);fill-opacity:1;" d="M 80.339844 68.449219 C 84.628906 65.320312 90.816406 61.777344 93.023438 57.089844 C 95.230469 52.398438 93.863281 48.855469 88.960938 46.667969 C 85.023438 44.910156 67.582031 43.65625 60.929688 47.664062 C 54.277344 51.667969 57.292969 57.816406 61.03125 60.214844 C 63.675781 61.910156 69.527344 63.957031 71.53125 67.789062 C 73.539062 71.621094 74.996094 75.71875 76.277344 77.191406 C 76.277344 77.191406 76.054688 71.574219 80.339844 68.449219 "/>
<path style=" stroke:none;fill-rule:nonzero;fill:rgb(13.328552%,14.898682%,26.269531%);fill-opacity:1;" d="M 86.054688 35.121094 C 84.628906 38.851562 81.199219 43.332031 84.003906 41.457031 C 86.222656 39.976562 88.191406 37.453125 89.914062 37.027344 L 89.914062 37.023438 C 89.90625 36.984375 89.894531 36.945312 89.882812 36.902344 C 89.835938 36.710938 89.785156 36.519531 89.730469 36.324219 C 89.667969 36.082031 89.597656 35.835938 89.523438 35.589844 C 89.476562 35.421875 89.425781 35.253906 89.371094 35.085938 C 89.285156 34.816406 89.183594 34.550781 89.085938 34.285156 C 89.03125 34.144531 88.984375 34.003906 88.925781 33.863281 C 88.757812 33.460938 88.574219 33.0625 88.359375 32.671875 C 88.15625 32.300781 87.917969 31.933594 87.667969 31.566406 C 87.597656 31.464844 87.527344 31.363281 87.453125 31.261719 C 87.226562 30.945312 86.988281 30.632812 86.734375 30.324219 C 86.65625 30.226562 86.574219 30.128906 86.492188 30.03125 C 86.316406 29.824219 86.136719 29.617188 85.953125 29.417969 C 85.953125 29.421875 85.957031 29.429688 85.957031 29.433594 C 86.453125 31.082031 86.78125 33.222656 86.054688 35.121094 "/>
<path style=" stroke:none;fill-rule:nonzero;fill:rgb(13.328552%,14.898682%,26.269531%);fill-opacity:1;" d="M 69.300781 41.898438 C 71.851562 42.652344 71.84375 41.144531 70.585938 40.652344 C 69.328125 40.160156 68.515625 38.851562 66.617188 35.210938 C 65.890625 33.824219 65.558594 32.300781 65.425781 30.945312 C 65.421875 30.9375 65.421875 30.933594 65.421875 30.925781 C 65.257812 31.238281 65.105469 31.566406 64.949219 31.886719 C 64.695312 32.394531 64.441406 32.902344 64.199219 33.417969 C 63.996094 33.847656 63.804688 34.28125 63.609375 34.714844 C 63.023438 36.019531 62.464844 37.328125 61.941406 38.644531 C 61.886719 38.777344 61.832031 38.910156 61.777344 39.042969 C 61.570312 39.574219 61.378906 40.097656 61.183594 40.625 C 61.039062 41.007812 60.886719 41.394531 60.75 41.777344 C 60.753906 41.773438 60.753906 41.773438 60.757812 41.769531 C 61.578125 41.222656 62.457031 40.308594 63.875 39.042969 C 65.984375 37.152344 66.75 41.144531 69.300781 41.898438 "/>
<path style=" stroke:none;fill-rule:nonzero;fill:rgb(13.328552%,14.898682%,26.269531%);fill-opacity:1;" d="M 71.414062 26.710938 C 72.257812 29.054688 77.078125 30.589844 75.8125 29.25 C 74.542969 27.910156 72.714844 26.632812 73.402344 24.800781 C 73.855469 23.59375 74.230469 22.527344 74.78125 22.117188 C 74.78125 22.117188 74.785156 22.113281 74.785156 22.113281 C 74.773438 22.113281 74.761719 22.117188 74.75 22.117188 C 74.625 22.121094 74.496094 22.136719 74.371094 22.15625 C 74.320312 22.160156 74.273438 22.164062 74.222656 22.171875 C 74.101562 22.199219 73.976562 22.238281 73.855469 22.28125 C 73.808594 22.300781 73.757812 22.308594 73.710938 22.332031 C 73.585938 22.382812 73.46875 22.453125 73.351562 22.523438 C 73.304688 22.550781 73.257812 22.570312 73.214844 22.601562 C 73.054688 22.710938 72.898438 22.839844 72.746094 22.992188 C 72.511719 23.226562 72.277344 23.4375 72.046875 23.644531 C 72.007812 23.679688 71.96875 23.714844 71.929688 23.75 C 71.710938 23.941406 71.492188 24.121094 71.273438 24.300781 C 71.214844 24.347656 71.160156 24.390625 71.101562 24.4375 C 70.90625 24.59375 70.710938 24.746094 70.515625 24.898438 C 70.246094 25.109375 69.976562 25.316406 69.710938 25.527344 C 69.710938 25.53125 69.707031 25.53125 69.707031 25.53125 C 70.136719 25.28125 70.859375 25.175781 71.414062 26.710938 "/>
<path style="fill:none;stroke-width:1.2;stroke-linecap:round;stroke-linejoin:round;stroke:rgb(13.328552%,14.898682%,26.269531%);stroke-opacity:1;stroke-miterlimit:4;" d="M 2742.882441 4609.955904 L 2742.882441 4609.955904 " transform="matrix(0.0248577,0,0,-0.0249211,1.150205,140.725097)"/>
<path style=" stroke:none;fill-rule:nonzero;fill:rgb(98.81897%,86.669922%,78.039551%);fill-opacity:1;" d="M 90.945312 49.542969 C 90.867188 49.449219 90.789062 49.386719 90.710938 49.308594 C 90.316406 49.078125 89.878906 48.863281 89.414062 48.660156 C 88.792969 48.589844 88.308594 48.789062 88.308594 48.789062 C 88.347656 48.609375 88.375 48.441406 88.40625 48.269531 C 84.1875 46.960938 71.085938 46.109375 63.640625 48.289062 C 63.671875 48.453125 63.695312 48.617188 63.734375 48.789062 C 63.734375 48.789062 63.164062 48.542969 62.460938 48.679688 C 62.226562 48.765625 62.003906 48.855469 61.785156 48.949219 C 61.550781 49.089844 61.320312 49.269531 61.097656 49.542969 C 59.972656 50.957031 61.476562 51.335938 61.851562 52.5625 C 62.226562 53.789062 62.980469 55.394531 64.734375 55.394531 C 64.734375 55.394531 68.941406 65.765625 76.023438 65.765625 C 83.101562 65.765625 87.308594 55.394531 87.308594 55.394531 C 89.0625 55.394531 89.816406 53.789062 90.191406 52.5625 C 90.566406 51.335938 92.070312 50.957031 90.945312 49.542969 "/>
<path style=" stroke:none;fill-rule:nonzero;fill:rgb(8.628845%,10.198975%,13.328552%);fill-opacity:1;" d="M 87.136719 49.8125 C 86.886719 51.847656 85.582031 52.640625 83.109375 52.8125 C 80.632812 52.988281 78.691406 51.976562 78.34375 50.589844 C 77.820312 48.523438 80.0625 47.914062 82.535156 47.742188 C 85.007812 47.570312 87.359375 48.003906 87.136719 49.8125 Z M 73.605469 50.539062 C 73.21875 51.9375 71.265625 52.984375 68.796875 52.832031 C 66.324219 52.683594 65.035156 51.898438 64.820312 49.839844 C 64.632812 48.015625 66.992188 47.550781 69.460938 47.699219 C 71.933594 47.851562 74.15625 48.523438 73.605469 50.539062 Z M 89.144531 47.398438 C 87.660156 47.1875 86.183594 47.074219 84.738281 47.074219 C 80.191406 47.074219 77.667969 48.117188 77.5625 48.160156 C 76.710938 48.519531 76.082031 48.484375 76.023438 48.480469 L 75.90625 48.460938 L 75.867188 48.480469 C 75.683594 48.484375 75.117188 48.46875 74.386719 48.160156 C 74.285156 48.117188 71.761719 47.074219 67.210938 47.074219 C 65.773438 47.074219 64.289062 47.1875 62.808594 47.398438 L 62.582031 47.433594 C 62.582031 47.433594 63.785156 48.730469 63.929688 49.945312 C 64.078125 51.1875 64.691406 52.878906 68.324219 53.21875 C 71.03125 53.46875 73.292969 52.738281 74.183594 51.355469 C 74.367188 51.074219 74.5 50.785156 74.621094 50.527344 C 74.78125 50.179688 74.9375 49.847656 75.132812 49.734375 C 75.417969 49.570312 75.816406 49.558594 75.945312 49.558594 L 76.074219 49.558594 C 76.230469 49.5625 76.570312 49.589844 76.820312 49.734375 C 77.019531 49.847656 77.171875 50.179688 77.332031 50.53125 C 77.453125 50.785156 77.585938 51.074219 77.769531 51.355469 C 78.539062 52.554688 80.332031 53.269531 82.5625 53.269531 C 82.90625 53.269531 83.265625 53.25 83.628906 53.21875 C 87.261719 52.878906 87.875 51.1875 88.023438 49.945312 C 88.164062 48.730469 89.371094 47.433594 89.371094 47.433594 L 89.144531 47.398438 "/>
<path style=" stroke:none;fill-rule:nonzero;fill:rgb(72.549438%,71.759033%,71.369934%);fill-opacity:1;" d="M 42.789062 69.007812 C 42.835938 68.929688 42.890625 68.855469 42.941406 68.78125 C 42.890625 68.855469 42.835938 68.929688 42.789062 69.007812 "/>
<path style=" stroke:none;fill-rule:nonzero;fill:rgb(72.549438%,71.759033%,71.369934%);fill-opacity:1;" d="M 44.117188 67.777344 C 44.15625 67.757812 44.195312 67.734375 44.234375 67.71875 C 44.195312 67.734375 44.15625 67.757812 44.117188 67.777344 "/>
<path style=" stroke:none;fill-rule:nonzero;fill:rgb(72.549438%,71.759033%,71.369934%);fill-opacity:1;" d="M 43.097656 68.578125 C 43.152344 68.511719 43.203125 68.449219 43.265625 68.386719 C 43.203125 68.449219 43.152344 68.511719 43.097656 68.578125 "/>
<path style=" stroke:none;fill-rule:nonzero;fill:rgb(72.549438%,71.759033%,71.369934%);fill-opacity:1;" d="M 42.789062 69.007812 C 42.496094 69.519531 42.335938 70.113281 42.375 70.75 L 44.285156 100.945312 C 48.375 104.636719 53.132812 107.59375 58.34375 109.636719 L 91.929688 109.636719 C 92.378906 109.460938 92.832031 109.285156 93.277344 109.09375 C 66.730469 105.976562 45.917969 89.5625 42.789062 69.007812 "/>
<path style=" stroke:none;fill-rule:nonzero;fill:rgb(72.549438%,71.759033%,71.369934%);fill-opacity:1;" d="M 44.742188 67.550781 C 44.785156 67.542969 44.832031 67.535156 44.878906 67.523438 C 44.832031 67.53125 44.785156 67.542969 44.742188 67.550781 "/>
<path style=" stroke:none;fill-rule:nonzero;fill:rgb(72.549438%,71.759033%,71.369934%);fill-opacity:1;" d="M 43.601562 68.089844 C 43.65625 68.046875 43.714844 68.011719 43.773438 67.972656 C 43.714844 68.011719 43.65625 68.046875 43.601562 68.089844 "/>
<path style=" stroke:none;fill-rule:nonzero;fill:rgb(82.348633%,81.959534%,81.17981%);fill-opacity:1;" d="M 75.296875 93.671875 C 72.777344 93.671875 70.734375 91.621094 70.734375 89.09375 C 70.734375 86.566406 72.777344 84.519531 75.296875 84.519531 C 77.820312 84.519531 79.863281 86.566406 79.863281 89.09375 C 79.863281 91.621094 77.820312 93.671875 75.296875 93.671875 Z M 107.871094 70.097656 C 107.652344 68.617188 106.378906 67.464844 104.820312 67.464844 L 45.453125 67.464844 C 45.253906 67.464844 45.0625 67.488281 44.878906 67.523438 C 44.832031 67.535156 44.785156 67.542969 44.742188 67.550781 C 44.566406 67.59375 44.394531 67.648438 44.234375 67.71875 C 44.195312 67.734375 44.15625 67.757812 44.117188 67.777344 C 43.996094 67.835938 43.882812 67.898438 43.773438 67.972656 C 43.714844 68.011719 43.65625 68.046875 43.601562 68.089844 C 43.484375 68.179688 43.371094 68.277344 43.265625 68.386719 C 43.203125 68.449219 43.152344 68.511719 43.097656 68.578125 C 43.042969 68.644531 42.992188 68.710938 42.941406 68.78125 C 42.890625 68.855469 42.835938 68.929688 42.789062 69.007812 C 45.917969 89.5625 66.730469 105.976562 93.277344 109.09375 C 97.964844 107.082031 102.25 104.316406 105.988281 100.945312 L 107.898438 70.75 C 107.914062 70.527344 107.902344 70.308594 107.871094 70.097656 "/>
<g clip-path="url(#clip3)" clip-rule="nonzero">
<path style=" stroke:none;fill-rule:nonzero;fill:rgb(44.309998%,43.528748%,43.139648%);fill-opacity:1;" d="M 71.230469 112.632812 L 79.042969 112.632812 C 83.554688 112.253906 87.878906 111.226562 91.929688 109.636719 L 58.34375 109.636719 C 62.394531 111.226562 66.71875 112.253906 71.230469 112.632812 "/>
</g>
<path style=" stroke:none;fill-rule:nonzero;fill:rgb(100%,100%,100%);fill-opacity:1;" d="M 75.296875 84.519531 C 72.777344 84.519531 70.734375 86.566406 70.734375 89.09375 C 70.734375 91.621094 72.777344 93.671875 75.296875 93.671875 C 77.820312 93.671875 79.863281 91.621094 79.863281 89.09375 C 79.863281 86.566406 77.820312 84.519531 75.296875 84.519531 "/>
</g>
</svg>
